/* XPM */
static char *c8bf8f20782a4052d3addbec25b4c699VWowrWRyJngOY81J[] = {
/* columns rows colors chars-per-pixel */
"64 64 10 1 ",
"  c None",
". c #291400",
"X c #361B00",
"o c #402100",
"O c #4F2A00",
"+ c #633500",
"@ c #91291E",
"# c #C86525",
"$ c #EFA44F",
"% c #EFE89A",
/* pixels */
"                                                                ",
"                                                                ",
"                                                                ",
"                                                                ",
"                                                                ",
"                                                                ",
"                                                                ",
"                                                                ",
"                      ..............                            ",
"                      ..............                            ",
"                    ..OOOO++++OOOOOO....                        ",
"                    ..OOOO++++OOOOOO....                        ",
"                  ..OO++++++++@@@@++OOOO..                      ",
"                  ..OO++++++++@@@@++OOOO..                      ",
"            @@@@..XX++++++++@@$$%%@@++++OO..                    ",
"            @@@@..XX++++++++@@$$%%@@++++OO..                    ",
"          @@$$##XXoo++++++@@##$$%%@@++++++OO..                  ",
"          @@$$##XXoo++++++@@##$$%%@@++++++OO..                  ",
"          ..##XXoo++++++XX@@####$$@@XX++++XX..                  ",
"          ..##XXoo++++++XX@@####$$@@XX++++XX..                  ",
"        ..XXXXOO++++++++oo....XX@@..oo++++oo..@@@@              ",
"        ..XXXXOO++++++++oo....XX@@..oo++++oo..@@@@              ",
"      ..ooooOO++++++++++++oooooo..oo++++++ooXX$$%%@@            ",
"      ..ooooOO++++++++++++oooooo..oo++++++ooXX$$%%@@            ",
"    ..ooooOO++++++++++++++++++++ooOOOO++++OOoo..$$@@            ",
"    ..ooooOO++++++++++++++++++++ooOOOO++++OOoo..$$@@            ",
"    ..ooOO++++++++++oooooooo++OOOOOOOOOOOOOOoooo..              ",
"    ..ooOO++++++++++oooooooo++OOOOOOOOOOOOOOoooo..              ",
"    ..ooooOOOOOO++ooOOOOOOOOooOOOOOO@@@@oooooooo..              ",
"    ..ooooOOOOOO++ooOOOOOOOOooOOOOOO@@@@oooooooo..              ",
"    ..ooooooOOOOooOO++++++++OOOOXX@@$$%%@@XXoooo..              ",
"    ..ooooooOOOOooOO++++++++OOOOXX@@$$%%@@XXoooo..              ",
"    ..oooo@@@@OOOO++++++++OOOOOOXX..@@##..ooooXXXX..            ",
"    ..oooo@@@@OOOO++++++++OOOOOOXX..@@##..ooooXXXX..            ",
"  ..oooo@@$$%%@@OOOOOO++++OOOOOOooXX..@@ooXXXXXXXXXX....        ",
"  ..oooo@@$$%%@@OOOOOO++++OOOOOOooXX..@@ooXXXXXXXXXX....        ",
"  ..oo..@@##$$@@..OOOO++OOOOOOooooooXXXXXXXXXXXX....++++..      ",
"  ..oo..@@##$$@@..OOOO++OOOOOOooooooXXXXXXXXXXXX....++++..      ",
"  ..ooXX....@@..XXOOOOOOOOOOooooooooooXXXXXX....XX++++OOOO@@@@  ",
"  ..ooXX....@@..XXOOOOOOOOOOooooooooooXXXXXX....XX++++OOOO@@@@  ",
"  ..XXooXXXX..XXooooOOOOOOooooooooooooXXXX..XX++++++OO..@@$$%%@@",
"  ..XXooXXXX..XXooooOOOOOOooooooooooooXXXX..XX++++++OO..@@$$%%@@",
"  ..XXooooooXXooXXXXOOOOoooooo@@@@ooooOO..++++++OOOOooXX@@##$$@@",
"  ..XXooooooXXooXXXXOOOOoooooo@@@@ooooOO..++++++OOOOooXX@@##$$@@",
"..XXooooooooooXXOOOO++oooooo@@%%%%@@ooOOOOOOOOOOoooooooo....@@..",
"..XXooooooooooXXOOOO++oooooo@@%%%%@@ooOOOOOOOOOOoooooooo....@@..",
"..XXooooooooXXOOOOOO++oooooo@@##$$%%@@ooooooooXXXXXXooooooXX....",
"..XXooooooooXXOOOOOO++oooooo@@##$$%%@@ooooooooXXXXXXooooooXX....",
"..XXoooooo@@@@@@OO++oooooo..@@####$$@@..ooooXXOOOOOOXXooooooXX..",
"..XXoooooo@@@@@@OO++oooooo..@@####$$@@..ooooXXOOOOOOXXooooooXX..",
"..XXXXoo@@$$$$%%@@oooooo..XX....@@@@..XX..oooo++++OOOOXXooXX..  ",
"..XXXXoo@@$$$$%%@@oooooo..XX....@@@@..XX..oooo++++OOOOXXooXX..  ",
"..XXXXXXoo@@##$$@@oo..XX..ooooXX..XXXXoo..XXoooooo++++ooooXX..  ",
"..XXXXXXoo@@##$$@@oo..XX..ooooXX..XXXXoo..XXoooooo++++ooooXX..  ",
"  ..XXXXXX@@####..ooXX..XXXXooooooooooooXX..XXXXooooooXXXXXX..  ",
"  ..XXXXXX@@####..ooXX..XXXXooooooooooooXX..XXXXooooooXXXXXX..  ",
"    ..XXXX..@@..ooXXXX..XXXXooXXXXXXXXXXXX..XXXXooooXXXXXX..    ",
"    ..XXXX..@@..ooXXXX..XXXXooXXXXXXXXXXXX..XXXXooooXXXXXX..    ",
"    ..XXXXXX..XXXXXXXX..XXXXXXXX......XXXX..XXXXXXXXXX....      ",
"    ..XXXXXX..XXXXXXXX..XXXXXXXX......XXXX..XXXXXXXXXX....      ",
"      ......XXXXXXXXXX..........      ......XXXXXXXX..          ",
"      ......XXXXXXXXXX..........      ......XXXXXXXX..          ",
"            ..........                      ........            ",
"            ..........                      ........            "
};