/* XPM */
static char *f902111a644e4365e6a1c01fd4ef9472TjrZYZiAva1bDzw9[] = {
/* columns rows colors chars-per-pixel */
"64 64 147 2 ",
"   c black",
".  c #FFF000",
"X  c #FFF000",
"o  c #FFF000",
"O  c #FFF000",
"+  c #FFF000",
"@  c #FFF000",
"#  c #FFF000",
"$  c None",
"%  c #FFF000",
"&  c #F6E701",
"*  c #E5D602",
"=  c #DCCD03",
"-  c #B0A106",
";  c #968608",
":  c #73630B",
">  c #7C6C0A",
",  c #8D7D09",
"<  c #C2B205",
"1  c #72620B",
"2  c #6F5F0B",
"3  c #928208",
"4  c #DBCB03",
"5  c #8F7F09",
"6  c #C6B706",
"7  c #E2D304",
"8  c #E9DA03",
"9  c #F8E901",
"0  c #66570A",
"q  c #897A07",
"w  c #D8C902",
"e  c #80700B",
"r  c #9B8A0B",
"t  c #A9980B",
"y  c #BEAE08",
"u  c #77680A",
"i  c #807208",
"p  c #A39505",
"a  c #E0D202",
"s  c #79690C",
"d  c #86740E",
"f  c #93810E",
"g  c #A2900C",
"h  c #8C7A0F",
"j  c #A9970B",
"k  c #E2D204",
"l  c #8C7C09",
"z  c #BDAE04",
"x  c #F5E601",
"c  c #CDBC07",
"v  c #CBBB04",
"b  c #A89807",
"n  c #DECE03",
"m  c #9B8B09",
"M  c #85740C",
"N  c #9D8C0B",
"B  c #CABB04",
"V  c #E1D103",
"C  c #A4930A",
"Z  c #CBBB06",
"A  c #75640B",
"S  c #78670C",
"D  c #81700D",
"F  c #A4930B",
"G  c #E1D104",
"H  c #7E6D0D",
"J  c #87760E",
"K  c #A3920C",
"L  c #98860E",
"P  c #AE9C0C",
"I  c #E4D404",
"U  c #8A790F",
"Y  c #D2C107",
"T  c #B19E0D",
"R  c #B8A50C",
"E  c #E7D704",
"W  c #FAEA01",
"Q  c #EFDE03",
"!  c #D9C707",
"~  c #B8A40E",
"^  c #BEA90D",
"/  c #E9D804",
"(  c #CEBB0A",
")  c #AD9810",
"_  c #93800F",
"`  c #A9960D",
"'  c #D4C207",
"]  c #A89211",
"[  c #E9D904",
"{  c #A18C10",
"}  c #A89310",
"|  c #B7A20E",
" . c #BEAA0D",
".. c #E8D704",
"X. c #AB9410",
"o. c #B2980E",
"O. c #B69A0D",
"+. c #C8B00A",
"@. c #EDDB03",
"#. c #B9A50C",
"$. c #C7A509",
"%. c #D2AB06",
"&. c #DDBD04",
"*. c #F4DF01",
"=. c #E6BF02",
"-. c #E2B802",
";. c #E8C302",
":. c #F7E101",
">. c #F1D601",
",. c #F7E100",
"<. c #E8C301",
"1. c #FDEC00",
"2. c #F9E500",
"3. c #EECE01",
"4. c #E0B402",
"5. c #C0A10A",
"6. c #D5AE05",
"7. c #DCB203",
"8. c #C6AC0A",
"9. c #D7B105",
"0. c #E7CF04",
"q. c #E2BD03",
"w. c #93830A",
"e. c #C8B806",
"r. c #8E7D0D",
"t. c #A08F0C",
"y. c #988410",
"u. c #A38D11",
"i. c #F3DA01",
"p. c #ECCB01",
"a. c #A69011",
"s. c #F3D901",
"d. c #CEBE07",
"f. c #A7950D",
"g. c #A38F0F",
"h. c #E2CB03",
"j. c #E1BC02",
"k. c #B79F09",
"l. c #D2AD04",
"z. c #E8D603",
"x. c #B9A209",
"c. c #B19309",
"v. c #D0A904",
"b. c #F2DD01",
"n. c #D8B804",
"m. c #DBB003",
"M. c white",
/* pixels */
"                                      . X % % % % % % % % % % % % % % % % % % % % % % X .                                       ",
"                                      . X % % % % % % % % % % % % % % % % % % % % % % X .                                       ",
"                                      . X % % % % % % % % % % % % % % % % % % % % % % X .                                       ",
"                      o O . . . . . . + @ % % & * = = = = = = = = = = = = = = * & % % @ + . . . . . . O o                       ",
"                      O # X X X X X X @ $ % % * - ; ; ; ; ; ; ; ; ; ; ; ; ; ; - * % % $ @ X X X X X X # O                       ",
"                      . X % % % % % % % % % % = ; : : : : > , ; ; , > : : : : ; = % % % % % % % % % % X .                       ",
"                      . X % % % % % % % % % % = ; : : : : , < = = < , : : : : ; = % % % % % % % % % % X .                       ",
"              o O . . + @ % % & * = = = = = = < , : : 1 2 3 4 % % = ; : : : : 5 6 7 7 7 7 7 7 8 9 % % @ + . . O o               ",
"              O # X X @ $ % % * - ; ; ; ; ; ; , > : : 2 0 q w % % = ; : : : : e r t t t t t t y 8 % % $ @ X X # O               ",
"              . X % % % % % % = ; : : : : : : : : : : u i p a % % * - , > : : s d f g g f h h j k % % % % % % X .               ",
"              . X % % % % % % = ; : : : : : : : : : : l z a x % % & * < , : : s d g c c g h h j k % % % % % % X .               ",
"      o O . . + @ % % & * = = v b , > : : : : : : : : ; = % % % % % % n m s s M N y 8 8 y g f g c 7 7 8 9 % % @ + . . O o       ",
"      O # X X @ $ % % * - ; ; b B < , : : : : : : : : ; = % % % % % % V C d d N Z 8 9 9 8 c g f g t t y 8 % % $ @ X X # O       ",
"      . X % % % % % % = ; > , - * * - , > : : : : > , - * & * = = * & 8 y g f g c 8 9 9 8 c g h h h h j k % % % % % % X .       ",
"      . X % % % % % % = ; , < * & & * < , : : : : , < * & * - ; ; - * 9 8 c g f g y 8 8 y g f h h h h j k % % % % % % X .       ",
"      . X % % & * = = v b - * % % % % * - , > : : ; = % % = ; A S m n % % 7 t h h g c c g h h h h h h g c 7 7 8 9 % % X .       ",
"      . X % % * - ; ; b B * & % % % % & * < , : : ; = % % = ; S D F G % % 7 t h h f g g f h h h h h h f g t t y 8 % % X .       ",
"      . X % % = ; : : , < * & % % % % & * < , : : ; = % % = ; s d j k % % 7 t h h h h h h h h h h f g g f h h j k % % X .       ",
"      . X % % = ; : : > , - * % % % % * - , > : : ; = % % = ; s d j k % % 7 t h h h h h h h h h h g c c g h h j k % % X .       ",
". . . + @ % % = ; : : : : , < * & & * < , : : > , - * % % n m H J j k % % 8 y g f h h h h h h f g y 8 8 y K L P I % % @ + . . . ",
"X X X @ $ % % = ; : : : : > , - * * - , > : : , < * & % % V C J U j k % % 9 8 c g h h h h h h g c 8 9 9 8 Y T R E % % $ @ X X X ",
"% % % % % % % = ; : : : : : : , < < , : : : : ; = % % 9 8 c g h h g c 8 9 % % 7 t h h h h h h g c 8 9 W Q ! ~ ^ / % % % % % % % ",
"% % % % % % % = ; : : : : : : > , , > : : : : ; = % % 8 y g f h h f g y 8 % % 7 t h h h h h h f g y 8 Q ( ~ ) ^ / % % % % % % % ",
"% % % & * = = < , : : : : : : : : : : > , ; ; - * % % 7 t f g j j g f j k % % 8 y j j K L _ _ _ _ ` ' ! ~ ] ] ~ ! [ [ Q W % % % ",
"% % % * - ; ; , > : : : : : : : : : : , < = = * & % % 7 t g c k k c g j k % % 9 8 k k Y T { { { { } | ~ ) ] ] ) ~  . .( Q % % % ",
"% % % = ; : : : : : : : : > , ; ; ; ; - * % % % % 9 8 c g j k % % 7 t g c 8 9 % % % % Q ( ^ ^ ^ ^ ~ ) ] ] ] ] ] ] ] ] ^ / % % % ",
"% % % = ; : : : : : : : : , < = = = = * & % % % % 8 y g f j k % % 7 t f g y 8 % % % % W Q / / / / ! ~ ] ] ] ] ] ] ] ] ^ / % % % ",
"% % % = ; : : 1 2 u l ; ; - * % % % % % % 9 8 7 7 c g f g y 8 % % 8 y g f g c I ..Q W % % % % % % Q ( ^ ^ ~ ) X.o.O.O.+.@.% % % ",
"% % % = ; : : 2 0 i z = = * & % % % % % % 8 y t t g f g c 8 9 % % 9 8 c g f g P #.( Q % % % % % % W Q / / ! ~ o.$.%.%.&.*.% % % ",
"% % % = ; > , 3 q p a % % & * = = = = n V c g f g j j y 8 % % % % % % 8 y j j ` } ~ ! [ [ [ [ [ [ Q W % % Q ( +.&.=.-.;.:.% % % ",
"% % % = ; , < 4 w a x % % * - ; ; ; ; m C g f g c k k 8 9 % % % % % % 9 8 k k ' | ) ~  . . . . . .( Q % % W Q @.*.>.=.;.:.% % % ",
"% % % = ; ; = % % % % % % = ; : : : : s d h h j k % % % % % % % % % % % % % % [  .] ] ] ] ] ] ] ] ^ / % % % % % % ,.<.;.:.% % % ",
"% % % = ; ; = % % % % % % = ; : : : : s d h h j k % % % % % % % % % % % % % % [  .] ] ] ] ] ] ] ] ^ / % % % % % % ,.<.;.:.% % % ",
"% % % = ; , < = = * & % % * - ; ; ; ; m F g f g c 7 7 8 9 % % % % % % W Q [ [ ! ~ ) ~ ^ ^ ^ ^ ^ ^ ( Q % % 1.2.,.,.>.=.;.:.% % % ",
"% % % = ; > , ; ; - * % % & * = = = = n G c g f g t t y 8 % % % % % % Q (  . .~ ) ~ ! / / / / / / Q W % % 2.3.<.<.=.-.;.:.% % % ",
"% % % = ; : : : : , < = = * & % % % % % % 8 y j j g f g c 8 9 % % 9 8 ' | ) ~ ^ ^ ( Q % % % % % % W Q @.*.>.=.4.4.4.4.;.:.% % % ",
"% % % = ; : : : : > , ; ; - * % % % % % % 9 8 k k c g f g y 8 % % 8 y ` } ~ ! / / Q W % % % % % % Q ( +.&.=.-.4.4.4.4.;.:.% % % ",
"% % % = ; : : : : : : : : , < n V 7 7 8 9 % % % % 8 y g f j k % % 7 t L T ( Q % % % % W Q [ [ [ [ ! ~ O.%.4.4.4.4.4.4.;.:.% % % ",
"% % % = ; : : : : : : : : > , m C t t y 8 % % % % 9 8 c g j k % % 7 t K Y Q W % % % % Q (  . . . .~ ) O.%.4.4.4.4.4.4.;.:.% % % ",
"% % % * - ; ; , > : : > , 5 e H J h h g c 7 7 8 9 % % 7 t g c I ..' ` P I % % W Q [ [ ! ~ ] ] X.o.O.O.5.6.4.4.-.=.;.;.3.2.% % % ",
"% % % & * = = < , : : , < 6 r J U h h f g t t y 8 % % 7 t f g P #.| } R E % % Q (  . .~ ) ] ] o.$.%.%.6.7.4.4.=.>.:.:.2.1.% % % ",
"% % % % % % % = ; > , - * 8 y g f h h h h h h j k % % 8 y g f _ { ) ~ ( Q % % [  .] ] ] ] ) ~ 8.9.4.4.4.4.4.4.;.:.% % % % % % % ",
"% % % % % % % = ; , < * & 9 8 c g h h h h h h j k % % 9 8 c g _ { ~ ! Q W % % [  .] ] ] ] ~ ! 0.q.4.4.4.4.4.4.;.:.% % % % % % % ",
"X X X @ $ % % n m w.e.8 9 9 8 c g h h h h h h g c 8 9 % % 7 t _ { ^ / % % W Q ! ~ ] ] ) ~ ( Q 2.3.=.-.4.4.4.4.;.:.% % $ @ X X X ",
". . . + @ % % V C r.t.y 8 8 y g f h h h h h h f g y 8 % % 7 t _ { ^ / % % Q ( ~ ) ] ] ~ ! Q W 1.2.>.=.4.4.4.4.;.:.% % @ + . . . ",
"      . X % % 7 t h h g c c g h h h h h h h h h h j k % % 7 t _ { ^ / % % [  .] ] ) ~ ( Q % % % % 2.3.=.-.4.4.;.:.% % X .       ",
"      . X % % 7 t h h f g g f h h h h h h h h h h j k % % 7 t _ { ^ / % % [  .] ] ~ ! Q W % % % % 1.2.>.=.4.4.;.:.% % X .       ",
"      . X % % 8 y j j g f h h h h h h f g g f h h j k % % I P y.u.^ / % % [  .X.o.8.0.2.1.% % % % 1.2.i.p.;.;.3.2.% % X .       ",
"      . X % % 9 8 k k c g h h h h h h g c c g h h j k % % ..#.u.a.^ / % % [  .o.$.9.q.3.2.% % % % 2.3.p.s.:.:.2.1.% % X .       ",
"      . X % % % % % % 7 t h h h h f g y 8 8 y g f g c 8 9 Q ( ^ ^ ( Q W Q ! ~ O.%.4.4.=.>.2.1.1.2.>.=.;.:.% % % % % % X .       ",
"      . X % % % % % % 7 t h h h h g c 8 9 9 8 c g f g y 8 W Q / / Q W Q ( ~ ) O.%.4.4.-.=.3.2.2.3.=.-.;.:.% % % % % % X .       ",
"      O # X X @ $ % % 8 y j j g f g c 8 9 9 8 d.f._ _ P I % % % % % % @.+.O.O.5.6.4.4.4.4.=.>.i.p.;.;.3.2.% % $ @ X X # O       ",
"      o O . . + @ % % 9 8 k k c g f g y 8 8 y f.g.{ { R E % % % % % % *.&.%.%.6.7.4.4.4.4.-.=.p.s.:.:.2.1.% % @ + . . O o       ",
"              . X % % % % % % 7 t h h g c c g _ { ] ] ~ ! Q W % % 9 8 h.j.4.4.4.4.4.4.4.4.4.4.;.:.% % % % % % X .               ",
"              . X % % % % % % 7 t h h f g g f _ { ] ] ) ~ ( Q % % 8 y k.l.4.4.4.4.4.4.4.4.4.4.;.:.% % % % % % X .               ",
"              O # X X @ $ % % 8 y j j j j j j ` } ] ] ] ] ^ / % % z.x.c.v.4.4.-.=.;.;.;.;.;.;.3.2.% % $ @ X X # O               ",
"              o O . . + @ % % 9 8 k k k k k k ' | ] ] ] ] ^ / % % b.n.v.m.4.4.=.>.:.:.:.:.:.:.2.1.% % @ + . . O o               ",
"                      . X % % % % % % % % % % [  .] ] ] ] ~ ! @.*.>.=.4.4.4.4.;.:.% % % % % % % % % % X .                       ",
"                      . X % % % % % % % % % % [  .] ] ] ] ) ~ +.&.=.-.4.4.4.4.;.:.% % % % % % % % % % X .                       ",
"                      O # X X X X X X @ $ % % Q ( ^ ^ ^ ^ ^ ^ +.&.;.;.;.;.;.;.3.2.% % $ @ X X X X X X # O                       ",
"                      o O . . . . . . + @ % % W Q / / / / / / @.*.:.:.:.:.:.:.2.1.% % @ + . . . . . . O o                       ",
"                                      . X % % % % % % % % % % % % % % % % % % % % % % X .                                       ",
"                                      . X % % % % % % % % % % % % % % % % % % % % % % X .                                       ",
"                                      . X % % % % % % % % % % % % % % % % % % % % % % X .                                       "
};
