/* XPM */
static char *_167c8c49ea2493e822d83ee1601ca89u9qq33vbFuXiB2c4[] = {
/* columns rows colors chars-per-pixel */
"64 64 239 2 ",
"   c black",
".  c #B03017",
"X  c #B03017",
"o  c #B03017",
"O  c #B03017",
"+  c #B03017",
"@  c #B03017",
"#  c #B03017",
"$  c #B23217",
"%  c #B53716",
"&  c #B73916",
"*  c #B83A16",
"=  c #BB3B17",
"-  c #BC3C18",
";  c #B93917",
":  c #B33317",
">  c #B03017",
",  c None",
"<  c #C04414",
"1  c #C54A13",
"2  c #C94D15",
"3  c #D05117",
"4  c #D45319",
"5  c #CB4A18",
"6  c #CC5312",
"7  c #CA5112",
"8  c #C74C13",
"9  c #D15614",
"0  c #DB5C17",
"q  c #DD5C19",
"w  c #D75619",
"e  c #E05F19",
"r  c #D45318",
"t  c #BC3C17",
"y  c #BC3F15",
"u  c #C54518",
"i  c #CE5314",
"p  c #D25317",
"a  c #BD3C18",
"s  c #BE3D18",
"d  c #BB3A18",
"f  c #B43317",
"g  c #C84D13",
"h  c #C04216",
"j  c #D65519",
"k  c #DA581A",
"l  c #D14F1A",
"z  c #E16019",
"x  c #E2611A",
"c  c #E4631A",
"v  c #E8661B",
"b  c #DB591B",
"n  c #BE3E18",
"m  c #E6641B",
"M  c #E9671C",
"N  c #E6641C",
"B  c #DF5D1B",
"V  c #D5541A",
"C  c #C84819",
"Z  c #C14318",
"A  c #BD3E18",
"S  c #B43517",
"D  c #C94819",
"F  c #DA5E1A",
"G  c #E3681A",
"H  c #D65A19",
"J  c #F47B1B",
"K  c #BF3E18",
"L  c #DC591B",
"P  c #EA671C",
"I  c #CE5119",
"U  c #E76D1A",
"Y  c #F0761B",
"T  c #CB5112",
"R  c #C84E13",
"E  c #C14514",
"W  c #B63716",
"Q  c #D55419",
"!  c #F2791B",
"~  c #EE741B",
"^  c #E96F1A",
"/  c #E56B1A",
"(  c #B93B15",
")  c #B33416",
"_  c #B93817",
"`  c #C34218",
"'  c #E1661A",
"]  c #D45819",
"[  c #C74A18",
"{  c #C64C13",
"}  c #BB3D15",
"|  c #B43416",
" . c #B13117",
".. c #CC4B18",
"X. c #D95819",
"o. c #DD611A",
"O. c #D05319",
"+. c #BB3C18",
"@. c #C54B13",
"#. c #B83A15",
"$. c #DE5D19",
"%. c #CC4E19",
"&. c #BF4018",
"*. c #B73617",
"=. c #BA3917",
"-. c #B43417",
";. c #C74618",
":. c #D85719",
">. c #E9661C",
",. c #E6631C",
"<. c #E3601B",
"1. c #DF5C1B",
"2. c #D3511A",
"3. c #B63618",
"4. c #BC3B18",
"5. c #B53517",
"6. c #C03F18",
"7. c #DE5B1B",
"8. c #D4521A",
"9. c #C94719",
"0. c #C14018",
"q. c #C34219",
"w. c #B83717",
"e. c #D35218",
"r. c #DC5B19",
"t. c #C64518",
"y. c #C54418",
"u. c #C84619",
"i. c #E25F1B",
"p. c #E05E1B",
"a. c #CB4C19",
"s. c #BB3A17",
"d. c #D04F18",
"f. c #DF5E19",
"g. c #E3611B",
"h. c #E7641C",
"j. c #E8671B",
"k. c #E5681B",
"l. c #DB5A19",
"z. c #ED6C1C",
"x. c #EE701C",
"c. c #F2771B",
"v. c #E76E1A",
"b. c #F0791A",
"n. c #E36B19",
"m. c #C14418",
"M. c #F2761B",
"N. c #F37A1B",
"B. c #CE5318",
"V. c #E87517",
"C. c #E47017",
"Z. c #C14517",
"A. c #CA4918",
"S. c #D25218",
"D. c #C24716",
"F. c #E57415",
"G. c #C34318",
"H. c #E57615",
"J. c #C24816",
"K. c #E57715",
"L. c #F1771B",
"P. c #EA701A",
"I. c #E66C1A",
"U. c #E4691A",
"Y. c #D75B19",
"T. c #CB4D19",
"R. c #C44618",
"E. c #CC4F15",
"W. c #C14217",
"Q. c #C84719",
"!. c #C64818",
"~. c #B73817",
"^. c #D95A18",
"/. c #D65518",
"(. c #E5621B",
"). c #D95E19",
"_. c #BE3F18",
"`. c #D85619",
"'. c #E8651C",
"]. c #E86E1A",
"[. c #B43617",
"{. c #BD4216",
"}. c #CF5916",
"|. c #EA7C15",
" X c #C24118",
".X c #CE4C19",
"XX c #DA571A",
"oX c #D15419",
"OX c #D86515",
"+X c #F38814",
"@X c #CB4919",
"#X c #D6541A",
"$X c #D8561A",
"%X c #D14F19",
"&X c #D35619",
"*X c #DD5B1A",
"=X c #B93818",
"-X c #DE621A",
";X c #C24418",
":X c #E3621A",
">X c #E2601A",
",X c #DE5C1A",
"<X c #B83818",
"1X c #C44319",
"2X c #CF4D19",
"3X c #ED731B",
"4X c #F78E14",
"5X c #D9571A",
"6X c #DD5B1B",
"7X c #E15E1B",
"8X c #D04F19",
"9X c #E0651A",
"0X c #CD4F19",
"qX c #BA3A18",
"wX c #C04218",
"eX c #BA3918",
"rX c #DC5A1A",
"tX c #E5631B",
"yX c #D7551A",
"uX c #E4611B",
"iX c #B93918",
"pX c #CB4A19",
"aX c #C74918",
"sX c #BB3B18",
"dX c #C64519",
"fX c #CC4D19",
"gX c #E76C1A",
"hX c #E2621B",
"jX c #EE731B",
"kX c #F47C1B",
"lX c #F57F1A",
"zX c #E87218",
"xX c #CF5617",
"cX c #F68617",
"vX c #F28515",
"bX c #EA7B15",
"nX c #E46C19",
"mX c #E57316",
"MX c #C24617",
/* pixels */
"                                      . X o o o o o o o o o o o o o o o o o o o o o o X .                                       ",
"                                      . X o o o o o o o o o o o o o o o o o o o o o o X .                                       ",
"                                      . X o o o o o o o o o o o o o o o o o o o o o o X .                                       ",
"                      O + . . . . . . @ # o o $ % & & & & & & * = - - - - - - ; : o o # @ . . . . . . + O                       ",
"                      + > X X X X X X # , o o % < 1 1 1 1 1 1 2 3 4 4 4 4 4 4 5 ; o o , # X X X X X X > +                       ",
"                      . X o o o o o o o o o o & 1 6 6 7 8 8 7 9 0 q w w q e e r t o o o o o o o o o o X .                       ",
"                      . X o o o o o o o o o o & 1 6 6 8 y y 8 9 0 w u u w e e r t o o o o o o o o o o X .                       ",
"              O + . . @ # o o $ % & & & & & & y 8 6 6 1 & & 1 i p 5 ; - 4 e e w u - - - - a s d f o o # @ . . + O               ",
"              + > X X # , o o % < 1 1 1 1 1 1 8 7 6 6 1 & & 1 g h ; : - 4 e e q w 4 4 4 4 j k l d o o , # X X > +               ",
"              . X o o o o o o & 1 7 8 1 1 8 7 6 6 7 8 < % % < < % : ; u w e e q w w q z x c v b n o o o o o o X .               ",
"              . X o o o o o o & 1 8 y & & y 8 6 6 8 y % $ $ % % $ ; 5 w q e e w u u w x m v M b n o o o o o o X .               ",
"      O + . . @ # o o $ % & & y 8 1 & $ % y 8 7 8 < % o o : ; ; : - 4 e e q w 5 ; a j c v N B V C Z Z A S o o # @ . . + O       ",
"      + > X X # , o o % < 1 1 8 7 1 & % < 8 7 8 y % $ o o ; 5 5 ; - 4 e e w u ; : s k v M B D C F G G H A o o , # X X > +       ",
"      . X o o o o o o & 1 6 6 7 8 < % % < 8 7 1 & o o : ; u w w u u w q w 5 ; f d D B N B l d Z G J J G Z o o o o o o X .       ",
"      . X o o o o o o & 1 6 6 8 y % $ $ % y 8 1 & o o ; 5 w q q w w q w u ; : d l B N B D d f Z G J J G Z o o o o o o X .       ",
"      . X o o $ % & & y 8 7 8 < % o o o o & 1 1 & : ; u w e e q w r r 5 ; o o K L P P b n S A I U J J U I Z Z A S o o X .       ",
"      . X o o % < 1 1 8 7 8 y % $ o o o o & 1 1 & ; 5 w q e e w u t t ; : o o K L P P b n A H U Y J J Y U G G H A o o X .       ",
"      . X o o & 1 6 6 T R E W : ; - - ; : % < < & n Q e e q w 5 ; o o o o f d D B P P b n A H U Y ! ~ ^ / U Y G Z o o X .       ",
"      . X o o & 1 6 6 R < ( ) ; 5 4 4 5 ; $ % & _ ` j e e w u ; : o o o o d l B N P P b n S A I U ~ ' ] [ I U G Z o o X .       ",
". . . @ # o o & 1 6 6 { } |  .- 4 e e r t : ; n ` ..X.q w 5 ; o o o o o o K L P P P P B D d f A H ' o.O.+.Z G G Z o o # @ . . . ",
"X X X # , o o & 1 6 6 @.#. .o - 4 e e r t ; 5 Q j X.$.w u ; : o o o o o o K L P P P P N B l d S A %.' o.&.Z G G Z o o , # X X X ",
"o o o o o o o & 1 6 6 1 &  .$ n Q q w ..= n Q e e q w 5 ; o o o o o o o o K L P P P P N B l d o o A H H A Z G G Z o o o o o o o ",
"o o o o o o o & 1 6 6 1 & $ *.` j w u = =.` j e e w u ; : o o o o o o o o K L P P P P B D d f o o S A A S Z G G Z o o o o o o o ",
"o o o $ % & & y 8 7 8 < % -.= ;.:.w u n ` ..X.q w 5 ; o o : ; ; : o o f d D B >.,.<.1.2.s 3.4.d f o o o o Z G U I Z Z A S o o o ",
"o o o % < 1 1 8 7 8 y % $ 5.6...X.q w Q j X.$.w u ; : o o ; 5 5 ; o o d l B N ,.7.8.9.0.a q.2.l d o o o o Z G Y U G G H A o o o ",
"o o o & 1 6 6 7 8 < % o o w.;.e.r.e e q w r r 5 ; o o : ; t.X.j a o o K L P P ,.7.8.D y.u.l i.p.a.A S o o A H U Y J J G Z o o o ",
"o o o & 1 6 6 8 y % $ o o s.d.r.f.e e w u t t ; : o o ; 5 X.g.k s o o K L P P >.,.<.B 7.1.i.h.j.k.H A o o S A I U J J G Z o o o ",
"o o o & 1 7 8 < % : ; ; : s.d.l.f.q w 5 ; o o o o : ; t.X.c v b n o o d l b b b b b b p.j.z.z.x.c.U I A S o o A H v.b.n.m.o o o ",
"o o o & 1 8 y % $ ; 5 5 ; w.;.e.r.w u ; : o o o o ; 5 X.g.v M b n o o f d n n n n n n a.k.M.M.c.N.Y U H A o o S A B.V.C.Z.o o o ",
"o o o & 1 1 & o o - 4 w u 0.A.d.S.5 ; o o o o : ; t.X.c v P P B D d f o o o o o o o o A H G G G G U Y U I A S o o D.F.F.D.o o o ",
"o o o & 1 1 & o o - 4 q w j X.S.G.; : o o o o ; 5 X.g.v M P P N B l d o o o o o o o o S A Z Z Z Z I U Y U H A o o D.H.H.D.o o o ",
"o o o & 1 1 & o o - 4 e e q w 5 ; o o o o o o ; 5 j k b b B N P P B D K K K K d f o o o o o o S A I U J J U I A S J.K.H.D.o o o ",
"o o o & 1 1 & o o - 4 e e w u ; : o o o o o o : ; a s n n D B P P N B L L L L l d o o o o o o A H U Y J J Y U H A J.K.H.D.o o o ",
"o o o & 1 1 & o o ; 5 w q w u - - - - ; : o o o o o o o o d l B N P P P P N B l d o o o o S A I U L.P.I.U.G G H A J.K.H.D.o o o ",
"o o o & 1 1 & o o : ; u w q w 4 4 4 4 5 ; o o o o o o o o f d D B P P P P B D d f o o o o A H U Y P.Y.T.R.Z Z A S J.K.H.D.o o o ",
"o o o * 2 E.W.; : o o ; 5 w q e e z x X.Q.K K K K K K d f o o K L P P N B l d o o o o S A I U J J P.Y.!.~.o o o o J.K.H.D.o o o ",
"o o o = 3 ^./.5 ; o o : ; u w e e x m (.1.L L L L L L l d o o K L P P B D d f o o o o A H U Y J J L.P.)._.o o o o J.K.H.D.o o o ",
"o o o - 4 e e w u - - ; : ; 5 r r `.B (.'.'.(.(.'.P P b n o o K L N B l d o o S A Z Z %.' P.].P.L.Y U H A [.{.J.J.}.|.H.D.o o o ",
"o o o - 4 e e q w 4 4 5 ; : ; t t  X.XXX(.(.XXXX(.P P b n o o K L B D d f o o A H G G ' o.Y.oXY.P.U I A S {.OXK.K.|.+XH.D.o o o ",
"o o o ; 5 r r w q e e :.;.K K d f 5.6.@X#X$X%X8.<.N B l d o o d l l d o o S A I U J J ~ ' &XR.!.).H A [.{.}.|.+X|.H.H.OX{.o o o ",
"o o o : ; t t u w e z e *XL L l d $ 5.=Xa  XD 8.<.B D d f o o f d d f o o A H U Y J J ! ~ -X;X~._.A S {.OX|.+X|.}.D.D.{.[.o o o ",
"o o o o o o o - 4 z :X>X,XB N b n : <X4.s 1X2XXX(.b n o o o o o o o o S A I U N.L.3XI.U Y G Z o o [.{.}.|.4X4XH.D.o o o o o o o ",
"o o o o o o o - 4 x m ,XD D B b n <XQ.2.5X6X7X(.'.b n o o o o o o o o A H U Y L.P.-XT.I U G Z o o {.OX|.+X4X4XH.D.o o o o o o o ",
"X X X # , o o a j c v b n d l l d d 8XB N P P P P b n o o o o o o S A I U Y U 9X).0XqXA H H A o o {.OXH.H.|.+XH.D.o o , # X X X ",
". . . @ # o o s k v M b n f d d f d 8XB N P P P P b n o o o o o o A H U Y U I wX_.qX: S A A S o o [.{.D.D.}.|.H.D.o o # @ . . . ",
"      . X o o K L P P B D d f o o eX.XrXtXP P N B l d o o o o S A I U J J U I A S o o [.{.J.J.{.[.[.{.J.J.}.|.H.D.o o X .       ",
"      . X o o K L P P N B l d o o <XQ.yXuXP P B D d f o o o o A H U Y J J Y U H A o o {.OXK.K.OX{.{.OXK.K.|.+XH.D.o o X .       ",
"      . X o o d l b b B N B D d f iXpXXX(.P P b n o o S A Z Z I U J J L.P.I.U.H A o o {.OX|.+X|.}.}.|.+X|.H.H.OX{.o o X .       ",
"      . X o o f d n n D B N B l d a #X(.'.P P b n o o A H G G U Y J J P.Y.T.R.A S o o [.{.}.|.+X|.|.+X|.}.D.D.{.[.o o X .       ",
"      . X o o o o o o K L P P b n d l B N N B l d S A %.' P.].P.L.L.P.o.aXqX: [.{.{.[.[.{.}.|.4X4X4X4XH.D.o o o o o o X .       ",
"      . X o o o o o o K L P P b n f d D B B D d f A H ' o.Y.oXY.P.P.Y.aXsX:  .{.OXOX{.{.OX|.+X4X4X4X4XH.D.o o o o o o X .       ",
"      + > X X # , o o d l b b 8.dXK K D B b n S A I U ~ ' &XR.!.).).!.qX: [.{.}.|.H.D.{.OX|.+X+X|.H.H.OX{.o o , # X X > +       ",
"      O + . . @ # o o f d n n dX8.L L B N b n A H U Y ! ~ -X;X~._._.~.:  .{.OX|.+XH.D.[.{.}.|.|.}.D.D.{.[.o o # @ . . + O       ",
"              . X o o o o o o K L P P P P B D fXgXJ J J J U I A S o o [.{.}.|.4X4X|.}.J.J.}.|.H.D.o o o o o o X .               ",
"              . X o o o o o o K L P P P P N B hXjXJ J J J Y U H A o o {.OX|.+X4X4X+X|.K.K.|.+XH.D.o o o o o o X .               ",
"              + > X X # , o o d l b b b b b b hXjXJ J Y U G G H A [.{.}.|.4X4X+X|.H.H.H.H.H.H.OX{.o o , # X X > +               ",
"              O + . . @ # o o f d n n n n n n fXgXJ J U I Z Z A S {.OX|.+X4X4X|.}.D.D.D.D.D.D.{.[.o o # @ . . + O               ",
"                      . X o o o o o o o o o o Z G kXlXzXxXJ.J.J.J.}.|.4X4X4X4XH.D.o o o o o o o o o o X .                       ",
"                      . X o o o o o o o o o o Z G lXcXvXbXK.K.K.K.|.+X4X4X4X4XH.D.o o o o o o o o o o X .                       ",
"                      + > X X X X X X # , o o A H nXmXH.H.H.H.H.H.H.H.H.H.H.H.OX{.o o , # X X X X X X > +                       ",
"                      O + . . . . . . @ # o o S A m.MXD.D.D.D.D.D.D.D.D.D.D.D.{.[.o o # @ . . . . . . + O                       ",
"                                      . X o o o o o o o o o o o o o o o o o o o o o o X .                                       ",
"                                      . X o o o o o o o o o o o o o o o o o o o o o o X .                                       ",
"                                      . X o o o o o o o o o o o o o o o o o o o o o o X .                                       "
};
