/* XPM */
static char *_0c1c05842ba459989918adf0a0e4d3auuNNWGjLZms5pGWK[] = {
/* columns rows colors chars-per-pixel */
"64 64 141 2 ",
"   c black",
".  c #2E0000",
"X  c #2E0000",
"o  c #2E0000",
"O  c #2E0000",
"+  c #2E0000",
"@  c #2E0000",
"#  c #2E0000",
"$  c #340202",
"%  c #400505",
"&  c #460707",
"*  c #2E0000",
"=  c None",
"-  c #650F0F",
";  c #771414",
":  c #8F1A1A",
">  c #891818",
",  c #7D1515",
"<  c #771313",
"1  c #460606",
"2  c #580B0B",
"3  c #7F1515",
"4  c #5E0B0B",
"5  c #4E0707",
"6  c #460505",
"7  c #360202",
"8  c #8F1818",
"9  c #8E1515",
"0  c #8D1414",
"q  c #750F0F",
"w  c #7C1313",
"e  c #881313",
"r  c #8D1313",
"t  c #951515",
"y  c #A51818",
"u  c #AD1A1A",
"i  c #4E0606",
"p  c #480606",
"a  c #4C0606",
"s  c #660B0B",
"d  c #841313",
"f  c #9D1313",
"g  c #841515",
"h  c #9F1818",
"j  c #6D0606",
"k  c #BA0606",
"l  c #600B0B",
"z  c #931515",
"x  c #961818",
"c  c #A31515",
"v  c #620000",
"b  c #C90000",
"n  c #C80000",
"m  c #610000",
"M  c #7D1010",
"N  c #5E0A0A",
"B  c #CC0B0B",
"V  c #BF0F0F",
"C  c #E80505",
"Z  c #3B0000",
"A  c #550000",
"S  c #880000",
"D  c #D50000",
"F  c #790505",
"G  c #A90F0F",
"H  c #BC1515",
"J  c #B21818",
"K  c #F50202",
"L  c #A20000",
"P  c #EF0000",
"I  c #D00202",
"U  c #E00505",
"Y  c #D90B0B",
"T  c #8B0F0F",
"R  c #B40505",
"E  c #BA0505",
"W  c #9C0F0F",
"Q  c #670C0C",
"!  c #991616",
"~  c #B21C1C",
"^  c #911515",
"/  c #4F0707",
"(  c #4D0505",
")  c #5B0202",
"_  c #5D0202",
"`  c #530505",
"'  c #B11C1C",
"]  c #BD1F1F",
"[  c #991717",
"{  c #520808",
"}  c #FC0000",
"|  c #A91A1A",
" . c #A11919",
".. c #A61B1B",
"X. c #B91F1F",
"o. c #9D1919",
"O. c #530808",
"+. c #961616",
"@. c #690D0D",
"#. c #6F0E0E",
"$. c #AE1A1A",
"%. c #B11B1B",
"&. c #4A0606",
"*. c #370202",
"=. c #B91E1E",
"-. c #811313",
";. c #9A1717",
":. c #B51E1E",
">. c #C22121",
",. c #6B0D0D",
"<. c #A51A1A",
"1. c #7A0808",
"2. c #AA1919",
"3. c #C70808",
"4. c #C41919",
"5. c #480707",
"6. c #7C1414",
"7. c #971A1A",
"8. c #B01313",
"9. c #E30606",
"0. c #4C0707",
"q. c #881414",
"w. c #A61A1A",
"e. c #BB1313",
"r. c #E60606",
"t. c #7B0000",
"y. c #AF0000",
"u. c #C11313",
"i. c #E80606",
"p. c #D20202",
"a. c #7D0606",
"s. c #E40606",
"d. c #B51313",
"f. c #B41313",
"g. c #C20606",
"h. c #AB0202",
"j. c #700606",
"k. c #9A1313",
"l. c #740606",
"z. c #8E1313",
"x. c #6A0D0D",
/* pixels */
"                                      . X o o o o o o o o o o o o o o o o o o o o o o X .                                       ",
"                                      . X o o o o o o o o o o o o o o o o o o o o o o X .                                       ",
"                                      . X o o o o o o o o o o o o o o o o o o o o o o X .                                       ",
"                      O + . . . . . . @ # o o $ % & & & & & & & & & & & & & & % $ o o # @ . . . . . . + O                       ",
"                      + * X X X X X X # = o o % - ; ; ; ; ; ; ; ; ; ; ; ; ; ; - % o o = # X X X X X X * +                       ",
"                      . X o o o o o o o o o o & ; : : > , < < , > : : : : : : < 1 o o o o o o o o o o X .                       ",
"                      . X o o o o o o o o o o & ; : : , 2 1 1 2 , : : : : : : < 1 o o o o o o o o o o X .                       ",
"              O + . . @ # o o $ % & & & & & & 2 , > , - % o o & ; : : > , , > 3 4 5 5 5 5 5 5 6 7 o o # @ . . + O               ",
"              + * X X # = o o % - ; ; ; ; ; ; , > , 2 % $ o o & ; : : , 2 2 , 8 9 0 0 0 0 0 0 q 6 o o = # X X * +               ",
"              . X o o o o o o & ; > , < < < < , > < 1 o o $ % 2 , : : < 1 % - w e r r t y u u r i o o o o o o X .               ",
"              . X o o o o o o & ; , 2 1 1 1 1 2 , < 1 o o % - , > : : < 1 $ % p a i i s t u u r i o o o o o o X .               ",
"      O + . . @ # o o $ % & & 2 , < 1 o o o o & ; , 2 & & 2 , : : : : 3 4 6 7 o o o o 6 q t y t s 5 5 6 7 o o # @ . . + O       ",
"      + * X X # = o o % - ; ; , > < 1 o o o o & ; > , ; ; , > : : : : 8 9 q 6 o o o o 7 6 s t y t 0 0 q 6 o o = # X X * +       ",
"      . X o o o o o o & ; > , < < - % o o $ % 2 , : : > , < < d f f d g h t s 5 5 6 7 o o 5 0 u u u u r i o o o o o o X .       ",
"      . X o o o o o o & ; , 2 1 1 % $ o o % - , > : : , 2 1 1 j k k j l z y t 0 0 q 6 o o 5 0 u u u u r i o o o o o o X .       ",
"      . X o o $ % & & 2 , , 2 % $ o o $ % 2 , x c f d - % o o v b n m 6 q r r t y t s 5 5 s t y t r r M N 5 5 6 7 o o X .       ",
"      . X o o % - ; ; , > > , - % o o % - , > c B k j % $ o o v b n m 7 6 i i s t y t 0 0 t y t s i i N M 0 0 q 6 o o X .       ",
"      . X o o & ; : : > , , > , 2 & & 2 , x c V C n m o o Z A S D n m o o Z A F G H J u u y t q 6 o o 5 0 u u r i o o X .       ",
"      . X o o & ; : : , 2 2 , > , ; ; , > c B C K n m o o A L D P n m o o A L I U Y H u u t s 6 7 o o 5 0 u u r i o o X .       ",
". . . @ # o o & ; > , - % % - , > : : > , T R D P n m o o v b P D L A Z A S D P D E W t y t s 6 7 7 6 Q ! ~ ~ ^ / o o # @ . . . ",
"X X X # = o o & ; , 2 % $ $ % 2 , : : , 2 ( ) S D n m o o v b D S A Z A L D P D S _ ` s t y t q 6 6 q ! ' ] ] [ { o o = # X X X ",
"o o o o o o o & ; , 2 % $ o o & ; : : < 1 o o v b D S v v S D n m o o v b } } n m o o 6 q t y t s s t |  ...X.o.O.o o o o o o o ",
"o o o o o o o & ; > , - % o o & ; : : < 1 o o v b P D b b D P n m o o v b } } n m o o 7 6 s t y t t y +.@.#...o.O.o o o o o o o ",
"o o o $ % & & 2 , : : < 1 $ % 2 , > , - % o o A L n n D P P D L A o o A L D P D S A Z o o 5 0 $.%.| +.q 6 O.o...#.O.O.&.*.o o o ",
"o o o % - ; ; , > : : < 1 % - , > , 2 % $ o o Z A m m S D D S A Z o o Z A S D P D L A o o 5 0 %.=. .@.6 7 O.o.X...o.o.-.&.o o o ",
"o o o & ; : : > , , > , 2 2 , : : d j v v A Z o o o o v b n m o o Z A v v S D P D L A o o 6 q ;.:.o.O.o o &.-...X.>.>.o.O.o o o ",
"o o o & ; : : , 2 2 , > , , > : : f k b b L A o o o o v b n m o o A L b b D P D S A Z o o 7 6 ,.<.o.O.o o *.&.#...>.>.o.O.o o o ",
"o o o & ; : : < 1 % - , > : : x c V C } } D S v v A Z v b D S A Z v b P D n n L A o o o o o o O.o.o.O.o o o o &.-...X.o.O.o o o ",
"o o o & ; : : < 1 $ % 2 , : : c B C K } } P D b b L A v b P D L A v b D S m m A Z o o o o o o O.o.o.O.o o o o *.&.#...o.O.o o o ",
"o o o & ; > , - % o o % - , > f k n n n n n n D P D S S D } } n m v b D S A Z o o o o Z A v v 1.2...#.&.*.o o o o O.o.o.O.o o o ",
"o o o & ; , 2 % $ o o $ % 2 , d j m m m m m m S D P D D P } } n m v b P D L A o o o o A L b b 3.4.X...-.&.o o o o O.o.o.O.o o o ",
"o o o & ; < 1 o o o o o o & ; < 1 o o o o o o A L n n D P } } D S S D } } D S A Z Z A S D P D 3.4.>.>...#.&.*.*.&.#...o.O.o o o ",
"o o o & ; < 1 o o o o o o & ; < 1 o o o o o o Z A m m S D } } P D D P } } P D L A A L D P D S 1.2.>.>.X...-.&.&.-...X.o.O.o o o ",
"o o o & ; < 1 o o o o $ % 2 , < 1 o o o o o o Z A v v S D } } } } P D n n D P D S S D P D L A O.o.X.....X...#.#...>.>.o.O.o o o ",
"o o o & ; < 1 o o o o % - , > < 1 o o o o o o A L b b D P } } } } D S m m S D P D D P D S A Z O.o...#.#...X.....X.>.>.o.O.o o o ",
"o o o & ; , 2 % $ $ % 2 , : : , 2 % $ Z A v v S D P D D P P D D P D S A Z A L n n n n L A o o O.o.o.O.O.o.>.>.>.>.>.>.o.O.o o o ",
"o o o & ; > , - % % - , > : : > , - % A L b b D P D S S D D S S D P D L A Z A m m m m A Z o o O.o.o.O.O.o.>.>.>.>.>.>.o.O.o o o ",
"o o o & ; : : , 2 2 , > , , > : : d j S D P D n n L A v b n m v b } } D S A Z o o o o o o *.&.#...o.O.&.-...X.>.>.>.>.o.O.o o o ",
"o o o & ; : : > , , > , 2 2 , : : f k D P D S m m A Z v b n m v b } } P D L A o o o o o o &.-...X.o.O.*.&.#...>.>.>.>.o.O.o o o ",
"o o o % - < < , > > , - % 5.6.7.7.8.9.P D L A o o Z A S D n m A L n n D P D S A Z o o o o O.o.X...-.&.o o O.o.X...o.o.-.&.o o o ",
"o o o $ % 1 1 2 , , 2 % $ 0.q.w.w.e.r.D S A Z o o A L D P n m Z A m m S D P D L A o o o o O.o...#.&.*.o o O.o...#.O.O.&.*.o o o ",
"o o o o o o o & ; < 1 o o 6 q t y H Y E _ o o o o v b P D L A o o o o A L D P n m o o *.&.#.....#.&.*.o o O.o.o.O.o o o o o o o ",
"o o o o o o o & ; < 1 o o 7 6 s t J H W ` o o o o v b D S A Z o o o o Z A S D n m o o &.-...X.X...-.&.o o O.o.o.O.o o o o o o o ",
"X X X # = o o 5.6.g l 6 7 o o 5 0 u u t s ` _ v v S D n m o o o o Z A v v t.y.y.t.A Z O.o.>.>.>.>...#.&.*.O.o.o.O.o o = # X X X ",
". . . @ # o o 0.q.h z q 6 o o 5 0 u u y t W E b b D P n m o o o o A L b b y.t.t.y.L A O.o.>.>.>.>.X...-.&.O.o.o.O.o o # @ . . . ",
"      . X o o 5 0 u u t s 6 7 5 0 u u u u u.i.P D n n y.t.A Z o o v b P D L A v b p.a.#...X...o.o...X...#.#...o.O.o o X .       ",
"      . X o o 5 0 u u y t q 6 5 0 u u u u u.i.D S m m t.y.L A o o v b D S A Z v b s.d...X...#.O.O.#...X.....X.o.O.o o X .       ",
"      . X o o 6 q r r t y t s s t y t t y H Y E _ o o v b n m o o v b n m o o A L 3.4.X...-.&.o o O.o.X...o.o.-.&.o o X .       ",
"      . X o o 7 6 i i s t y t t y t s s t J H W ` o o v b n m o o v b n m o o Z A 1.2...#.&.*.o o O.o...#.O.O.&.*.o o X .       ",
"      . X o o o o o o 5 0 u u u u r i 6 q t y r i o o v b n m *.&.a.p.n m *.&.&.*.O.o.o.O.*.&.O.O.#...o.O.o o o o o o X .       ",
"      . X o o o o o o 5 0 u u u u r i 7 6 s t r i o o v b n m &.-.d.s.n m &.-.-.&.O.o.o.O.&.-.o.o...X.o.O.o o o o o o X .       ",
"      + * X X # = o o 6 q r r t y r i o o 5 0 t s ` _ S D n m O.o.4.3.L A O.o...#.#.....#.#...X...o.o.-.&.o o = # X X * +       ",
"      O + . . @ # o o 7 6 i i s t r i o o 5 0 y t W E D P n m O.o.2.1.A Z O.o.X.....X.X.....X...#.O.O.&.*.o o # @ . . + O       ",
"              . X o o o o o o 5 0 t s 5 5 s t u u f.g.n n h.j.#...o.O.*.&.#...>.>.>.>.>.>.>.>.o.O.o o o o o o X .               ",
"              . X o o o o o o 5 0 y t 0 0 t y u u k.l.m m j.z...X.o.O.&.-...X.>.>.>.>.>.>.>.>.o.O.o o o o o o X .               ",
"              + * X X # = o o 6 q r r r r r r +.| ;.,.&.*.O.o.>.>...#.#...>.>.X...o.o.o.o.o.o.-.&.o o = # X X * +               ",
"              O + . . @ # o o 7 6 i i i i i i x. .:.<.-.&.O.o.>.>.X.....X.>.>...#.O.O.O.O.O.O.&.*.o o # @ . . + O               ",
"                      . X o o o o o o o o o o O.o.>.>...#.#...>.>.>.>.>.>.>.>.o.O.o o o o o o o o o o X .                       ",
"                      . X o o o o o o o o o o O.o.>.>.X.....X.>.>.>.>.>.>.>.>.o.O.o o o o o o o o o o X .                       ",
"                      + * X X X X X X # = o o &.-.o.o.o.o.o.o.o.o.o.o.o.o.o.o.-.&.o o = # X X X X X X * +                       ",
"                      O + . . . . . . @ # o o *.&.O.O.O.O.O.O.O.O.O.O.O.O.O.O.&.*.o o # @ . . . . . . + O                       ",
"                                      . X o o o o o o o o o o o o o o o o o o o o o o X .                                       ",
"                                      . X o o o o o o o o o o o o o o o o o o o o o o X .                                       ",
"                                      . X o o o o o o o o o o o o o o o o o o o o o o X .                                       "
};
