/* XPM */
static char *_55530c86e4c4599eaaf2b26d36de18dSTCD3Pb2GBF00CY7[] = {
/* columns rows colors chars-per-pixel */
"64 64 142 2 ",
"   c black",
".  c #2E0000",
"X  c #2E0000",
"o  c #2E0000",
"O  c #2E0000",
"+  c #2E0000",
"@  c #2E0000",
"#  c #2E0000",
"$  c None",
"%  c #2E0000",
"&  c #370202",
"*  c #4A0606",
"=  c #530808",
"-  c #811313",
";  c #9D1919",
":  c #C22121",
">  c #B91F1F",
",  c #A61B1B",
"<  c #6F0E0E",
"1  c #360202",
"2  c #460505",
"3  c #4E0606",
"4  c #4F0707",
"5  c #520808",
"6  c #750F0F",
"7  c #8D1313",
"8  c #911515",
"9  c #991717",
"0  c #4E0707",
"q  c #8D1414",
"w  c #AD1A1A",
"e  c #B21C1C",
"r  c #BD1F1F",
"t  c #5E0A0A",
"y  c #7D1010",
"u  c #991616",
"i  c #B11C1C",
"p  c #A11919",
"a  c #690D0D",
"s  c #670C0C",
"d  c #A91A1A",
"f  c #961616",
"g  c #951515",
"h  c #A51818",
"j  c #660B0B",
"k  c #B11B1B",
"l  c #B91E1E",
"z  c #B51E1E",
"x  c #A51A1A",
"c  c #AA1919",
"v  c #C41919",
"b  c #AE1A1A",
"n  c #9A1717",
"m  c #6B0D0D",
"M  c #7A0808",
"N  c #C70808",
"B  c #620000",
"V  c #C90000",
"C  c #D50000",
"Z  c #880000",
"A  c #550000",
"S  c #3B0000",
"D  c #EF0000",
"F  c #A20000",
"G  c #B21818",
"H  c #BC1515",
"J  c #9C0F0F",
"K  c #530505",
"L  c #C80000",
"P  c #610000",
"I  c #7D0606",
"U  c #B51313",
"Y  c #D90B0B",
"T  c #BA0505",
"R  c #5D0202",
"E  c #D20202",
"W  c #E40606",
"Q  c #340202",
"!  c #400505",
"~  c #460606",
"^  c #5E0B0B",
"/  c #8E1515",
"(  c #881313",
")  c #4C0606",
"_  c #A90F0F",
"`  c #E00505",
"'  c #7B0000",
"]  c #AF0000",
"[  c #650F0F",
"{  c #771313",
"}  c #7F1515",
"|  c #8F1818",
" . c #7C1313",
".. c #480606",
"X. c #790505",
"o. c #D00202",
"O. c #460707",
"+. c #771414",
"@. c #8F1A1A",
"#. c #891818",
"$. c #7D1515",
"%. c #FC0000",
"&. c #580B0B",
"*. c #9F1818",
"=. c #931515",
"-. c #841515",
";. c #600B0B",
":. c #841313",
">. c #6D0606",
",. c #9D1313",
"<. c #BA0606",
"1. c #700606",
"2. c #8E1313",
"3. c #AB0202",
"4. c #C20606",
"5. c #740606",
"6. c #B41313",
"7. c #9A1313",
"8. c #A31515",
"9. c #CC0B0B",
"0. c #E80505",
"q. c #F50202",
"w. c #961818",
"e. c #BF0F0F",
"r. c #6A0D0D",
"t. c #B40505",
"y. c #5B0202",
"u. c #E80606",
"i. c #8B0F0F",
"p. c #4D0505",
"a. c #C11313",
"s. c #E30606",
"d. c #E60606",
"f. c #B01313",
"g. c #BB1313",
"h. c #971A1A",
"j. c #A61A1A",
"k. c #7C1414",
"l. c #881414",
"z. c #480707",
"x. c #4C0707",
"c. c white",
/* pixels */
"                                      . X % % % % % % % % % % % % % % % % % % % % % % X .                                       ",
"                                      . X % % % % % % % % % % % % % % % % % % % % % % X .                                       ",
"                                      . X % % % % % % % % % % % % % % % % % % % % % % X .                                       ",
"                      o O . . . . . . + @ % % & * = = = = = = = = = = = = = = * & % % @ + . . . . . . O o                       ",
"                      O # X X X X X X @ $ % % * - ; ; ; ; ; ; ; ; ; ; ; ; ; ; - * % % $ @ X X X X X X # O                       ",
"                      . X % % % % % % % % % % = ; : : > , ; ; , > : : : : : : ; = % % % % % % % % % % X .                       ",
"                      . X % % % % % % % % % % = ; : : , < = = < , : : : : : : ; = % % % % % % % % % % X .                       ",
"              o O . . + @ % % 1 2 3 3 4 5 = = < , > , - * % % * - , > : : : : , < = = = = = = * & % % @ + . . O o               ",
"              O # X X @ $ % % 2 6 7 7 8 9 ; ; , > , < * & % % & * < , : : : : > , ; ; ; ; ; ; - * % % $ @ X X # O               ",
"              . X % % % % % % 0 q w w e r > , ; ; - * % % % % & * < , : : > , ; ; ; ; ; ; , > ; = % % % % % % X .               ",
"              . X % % % % % % 0 q w w e r , < = = * & % % % % * - , > : : , < = = = = = = < , ; = % % % % % % X .               ",
"      o O . . + @ % % 1 2 3 3 t y q q u i p a 2 1 % % % % & * < , > , ; ; - * % % % % & * < , , < = = * & % % @ + . . O o       ",
"      O # X X @ $ % % 2 6 7 7 y t 0 0 s u d f 6 2 % % % % * - , > , < = = * & % % % % * - , > > , ; ; - * % % $ @ X X # O       ",
"      . X % % % % % % 0 q w w 7 3 % % 2 6 g h f a = = = = < , : : , < = = = = * & & * < , > , ; ; , > ; = % % % % % % X .       ",
"      . X % % % % % % 0 q w w 7 3 % % 1 2 j g d p ; ; ; ; , > : : > , ; ; ; ; - * * - , > , < = = < , ; = % % % % % % X .       ",
"      . X % % 1 2 3 3 j g w w g j 2 1 1 2 j g k l z x ; ; c v v c ; ; ; ; , > , < < , : : ; = % % = ; , < = = * & % % X .       ",
"      . X % % 2 6 7 7 g h w w h g 6 2 2 6 g h b k n m = = M N N M = = = = < , > , , > : : ; = % % = ; > , ; ; - * % % X .       ",
"      . X % % 0 q w w h g q q g h g j j g h g q q 6 2 % % B V C Z A S % % * - ; ; , > : : , < * & * - , > : : ; = % % X .       ",
"      . X % % 0 q w w g j 0 0 j g h g g h g j 0 0 2 1 % % B V D C F A % % & * = = < , : : > , - * & * < , : : ; = % % X .       ",
". . . + @ % % 0 q h g 6 2 % % 0 q w w h g 6 2 % % % % % % A F C D C Z A S % % % % * - ; ; , > , < = = < , : : ; = % % @ + . . . ",
"X X X @ $ % % 0 q g j 2 1 % % 0 q w w g j 2 1 % % % % % % S A Z C D C F A % % % % & * = = < , > , ; ; , > : : ; = % % $ @ X X X ",
"% % % % % % % 0 q 7 3 % % 1 2 j g G H J K % % S A A S % % % % A F C D L P % % % % % % S A I U v c ; ; , > : : ; = % % % % % % % ",
"% % % % % % % 0 q 7 3 % % 2 6 g h H Y T R % % A F F A % % % % S A Z C L P % % % % % % A F E W N M = = < , : : ; = % % % % % % % ",
"% % % Q ! ~ ~ ^ / ( ) % % 0 q h g _ ` C Z P P Z C C Z A S % % S A Z C L P % % S A P P ' ] V V F A & * < , : : , < = = * & % % % ",
"% % % ! [ { { } |  ...% % 0 q g j X.o.D C L L C D D C F A % % A F C D L P % % A F L L ] ' B B A S * - , > : : > , ; ; - * % % % ",
"% % % O.+.@.@.#.$.[ ! 1 2 j g 7 3 A F C D %.%.D C C D L P S A Z C D C F A S A Z C D C ] ' A S % % * - ; ; , > : : : : ; = % % % ",
"% % % O.+.@.@.$.&.! Q 2 6 g h 7 3 S A Z C %.%.C Z Z C L P A F C D C Z A S A F C D C Z ' ] F A % % & * = = < , : : : : ; = % % % ",
"% % % O.+.@.@.$.&.~ ~ ^ / *.=.6 2 % % A F V V F A B V C Z Z C %.%.L P S A Z C D C F A B V C Z P P P P A S * - , > : : ; = % % % ",
"% % % O.+.@.@.#.$.{ { } | -.;.2 1 % % S A B B A S B V D C C D %.%.L P A F C D C Z A S B V D C L L L L F A & * < , : : ; = % % % ",
"% % % O.+.@.@.@.@.@.@.@.@.:.>.P P P P A S % % % % A F V V V V C D C Z Z C %.%.L P % % A F V V V V E W N M = = < , : : ; = % % % ",
"% % % O.+.@.@.@.@.@.@.@.@.,.<.L L L L F A % % % % S A B B B B Z C D C C D %.%.L P % % S A B B B B I U v c ; ; , > : : ; = % % % ",
"% % % O.+.#.$.+.+.$.#.@.@.,.<.V V C D C Z P P A S % % S A P P Z C %.%.D C V V F A % % % % % % % % * - ; ; , > : : : : ; = % % % ",
"% % % O.+.$.&.O.O.&.$.@.@.:.>.B B Z C D C L L F A % % A F L L C D %.%.C Z B B A S % % % % % % % % & * = = < , : : : : ; = % % % ",
"% % % O.+.{ ~ % % ! [ $.#.{ ~ % % A F V V C D C Z P P Z C %.%.%.%.%.%.C Z P P P P A S % % S A P P P P P P 1.2.; ; , > ; = % % % ",
"% % % O.+.{ ~ % % Q ! &.$.{ ~ % % S A B B Z C D C L L C D %.%.%.%.%.%.D C L L L L F A % % A F L L L L L L 3.1.= = < , ; = % % % ",
"% % % O.+.$.&.! Q % % O.+.$.&.! Q % % % % B V D C V V V V C D D C C D D C V V C D C Z P P ' ] V V V V C D L P & * < , ; = % % % ",
"% % % O.+.#.$.[ ! % % O.+.#.$.[ ! % % % % B V C Z B B B B Z C C Z Z C C Z B B Z C D C L L ] ' B B B B Z C L P * - , > ; = % % % ",
"% % % O.+.@.@.$.&.~ ~ &.$.@.@.:.>.P P P P Z C L P % % S A Z C L P B V C Z A S A F V V C D L P % % % % R T 4.5.m x : : ; = % % % ",
"% % % O.+.@.@.#.$.{ { $.#.@.@.,.<.L L L L C D L P % % A F C D L P B V D C F A S A B B Z C L P % % % % K J 6.7.n z : : ; = % % % ",
"% % % ! [ +.+.$.#.#.$.+.+.$.#.8.9.0.q.D C V V F A % % B V D C F A A F C D L P % % % % B V C Z R K 3 3 j g w w d p ; ; - * % % % ",
"% % % Q ! O.O.&.$.$.&.O.O.&.$.w.8.e.0.C Z B B A S % % B V C Z A S S A Z C L P % % % % B V D C T J 7 7 g h w w f r.= = * & % % % ",
"% % % % % % % O.+.{ ~ % % ! [ $.#.8.9.t.y.% % % % S A Z C L P % % % % B V C Z A S % % R T u.u.Y H h g q q g h 7 3 % % % % % % % ",
"% % % % % % % O.+.{ ~ % % Q ! &.$.w.8.i.p.% % % % A F C D L P % % % % B V D C F A % % K J a.a.H G g j 0 0 j g 7 3 % % % % % % % ",
"X X X @ $ % % O.+.{ ~ % % % % ! [ $.#.$.&.~ ~ ! Q B V %.%.L P % % % % A F C D C Z R K j g w w h g 6 2 % % 0 q 7 3 % % $ @ X X X ",
". . . + @ % % O.+.{ ~ % % % % Q ! &.$.#.$.{ { [ ! B V %.%.L P % % % % S A Z C D C T J g h w w g j 2 1 % % 0 q 7 3 % % @ + . . . ",
"      . X % % O.+.$.&.~ ~ ! Q % % O.+.@.@.@.@.$.&.>.<.0.q.L P % % % % Q ! >.<.s.d.Y H w w w w g j 3 3 3 3 j g 7 3 % % X .       ",
"      . X % % O.+.#.$.{ { [ ! % % O.+.@.@.@.@.#.$.:.,.e.0.L P % % % % ! [ :.,.f.g.H G w w w w h g 7 7 7 7 g h 7 3 % % X .       ",
"      . X % % ! [ +.+.$.#.{ ~ Q ! &.$.#.$.+.+.$.#.@.@.8.9.<.>.~ ~ ~ ~ &.$.@.@.h.j.h g q q q q g h w w h g q q 6 2 % % X .       ",
"      . X % % Q ! O.O.&.$.{ ~ ! [ $.#.$.&.O.O.&.$.@.@.w.8.,.:.{ { { { $.#.@.@.h.j.g j 0 0 0 0 j g w w g j 0 0 2 1 % % X .       ",
"      . X % % % % % % O.+.$.&.&.$.#.$.[ ! % % ! [ $.#.@.@.#.$.+.+.$.#.@.@.#.$.k.l.6 2 % % 1 2 j g w w 7 3 % % % % % % X .       ",
"      . X % % % % % % O.+.#.$.$.#.$.&.! Q % % Q ! &.$.@.@.$.&.O.O.&.$.@.@.$.&.z.x.2 1 % % 2 6 g h w w 7 3 % % % % % % X .       ",
"      O # X X @ $ % % ! [ +.+.$.#.$.&.! Q Q ! ~ ~ &.$.#.$.[ ! % % ! [ $.#.$.&.! Q % % 1 2 j g h g q q 6 2 % % $ @ X X # O       ",
"      o O . . + @ % % Q ! O.O.&.$.#.$.[ ! ! [ { { $.#.$.&.! Q % % Q ! &.$.#.$.[ ! % % 2 6 g h g j 0 0 2 1 % % @ + . . O o       ",
"              . X % % % % % % O.+.@.@.$.&.&.$.@.@.#.$.[ ! % % % % % % ! [ $.#.$.&.~ ~ ;.=.w w 7 3 % % % % % % X .               ",
"              . X % % % % % % O.+.@.@.#.$.$.#.@.@.$.&.! Q % % % % % % Q ! &.$.#.$.{ { -.*.w w 7 3 % % % % % % X .               ",
"              O # X X @ $ % % ! [ +.+.+.+.+.+.$.#.$.&.~ ~ ! Q % % % % Q ! &.$.#.$.+.+.k.l.q q 6 2 % % $ @ X X # O               ",
"              o O . . + @ % % Q ! O.O.O.O.O.O.&.$.#.$.{ { [ ! % % % % ! [ $.#.$.&.O.O.z.x.0 0 2 1 % % @ + . . O o               ",
"                      . X % % % % % % % % % % O.+.@.@.@.@.$.&.~ ~ ~ ~ &.$.@.@.{ ~ % % % % % % % % % % X .                       ",
"                      . X % % % % % % % % % % O.+.@.@.@.@.#.$.{ { { { $.#.@.@.{ ~ % % % % % % % % % % X .                       ",
"                      O # X X X X X X @ $ % % ! [ +.+.+.+.+.+.+.+.+.+.+.+.+.+.[ ! % % $ @ X X X X X X # O                       ",
"                      o O . . . . . . + @ % % Q ! O.O.O.O.O.O.O.O.O.O.O.O.O.O.! Q % % @ + . . . . . . O o                       ",
"                                      . X % % % % % % % % % % % % % % % % % % % % % % X .                                       ",
"                                      . X % % % % % % % % % % % % % % % % % % % % % % X .                                       ",
"                                      . X % % % % % % % % % % % % % % % % % % % % % % X .                                       "
};
