/* XPM */
static char *_6e82a90a43d49a1967d8872a9f3b403a0uU8lgeSTx5mMJx[] = {
/* columns rows colors chars-per-pixel */
"64 64 142 2 ",
"   c black",
".  c #2E0000",
"X  c #2E0000",
"o  c #2E0000",
"O  c #2E0000",
"+  c #2E0000",
"@  c #2E0000",
"#  c #2E0000",
"$  c None",
"%  c #2E0000",
"&  c #370202",
"*  c #4A0606",
"=  c #530808",
"-  c #811313",
";  c #9D1919",
":  c #C22121",
">  c #B91F1F",
",  c #A61B1B",
"<  c #6F0E0E",
"1  c #A51A1A",
"2  c #B51E1E",
"3  c #A11919",
"4  c #6A0D0D",
"5  c #4E0606",
"6  c #460505",
"7  c #360202",
"8  c #6B0D0D",
"9  c #9A1717",
"0  c #A91A1A",
"q  c #961616",
"w  c #8D1313",
"e  c #750F0F",
"r  c #8E1313",
"t  c #700606",
"y  c #610000",
"u  c #740606",
"i  c #9A1313",
"p  c #AD1A1A",
"a  c #A51818",
"s  c #951515",
"d  c #8D1414",
"f  c #4E0707",
"g  c #AB0202",
"h  c #C80000",
"j  c #C20606",
"k  c #B41313",
"l  c #660B0B",
"z  c #3B0000",
"x  c #550000",
"c  c #7A0808",
"v  c #AA1919",
"b  c #EF0000",
"n  c #D50000",
"m  c #BA0505",
"M  c #9C0F0F",
"N  c #A20000",
"B  c #C70808",
"V  c #C41919",
"C  c #880000",
"Z  c #5D0202",
"A  c #530505",
"S  c #E40606",
"D  c #B51313",
"F  c #C90000",
"G  c #620000",
"H  c #D20202",
"J  c #7D0606",
"K  c #BC1515",
"L  c #B21818",
"P  c #D90B0B",
"I  c #AF0000",
"U  c #7B0000",
"Y  c #E80606",
"T  c #C11313",
"R  c #931515",
"E  c #9F1818",
"W  c #881414",
"Q  c #4C0707",
"!  c #600B0B",
"~  c #841515",
"^  c #7C1414",
"/  c #480707",
"(  c #460606",
")  c #771313",
"_  c #771414",
"`  c #460707",
"'  c #E60606",
"]  c #BB1313",
"[  c #A61A1A",
"{  c #340202",
"}  c #400505",
"|  c #580B0B",
" . c #7D1515",
".. c #E30606",
"X. c #B01313",
"o. c #971A1A",
"O. c #650F0F",
"+. c #891818",
"@. c #FC0000",
"#. c #BA0606",
"$. c #9D1313",
"%. c #8F1A1A",
"&. c #6D0606",
"*. c #841313",
"=. c #F50202",
"-. c #E80505",
";. c #CC0B0B",
":. c #A31515",
">. c #BF0F0F",
",. c #961818",
"<. c #690D0D",
"1. c #B91E1E",
"2. c #B11B1B",
"3. c #AE1A1A",
"4. c #520808",
"5. c #991717",
"6. c #BD1F1F",
"7. c #B11C1C",
"8. c #991616",
"9. c #5B0202",
"0. c #4D0505",
"q. c #4F0707",
"w. c #911515",
"e. c #B21C1C",
"r. c #670C0C",
"t. c #B40505",
"y. c #8B0F0F",
"u. c #E00505",
"i. c #D00202",
"p. c #A90F0F",
"a. c #790505",
"s. c #7D1010",
"d. c #5E0A0A",
"f. c #8E1515",
"g. c #8F1818",
"h. c #5E0B0B",
"j. c #7F1515",
"k. c #4C0606",
"l. c #480606",
"z. c #881313",
"x. c #7C1313",
"c. c white",
/* pixels */
"                                      . X % % % % % % % % % % % % % % % % % % % % % % X .                                       ",
"                                      . X % % % % % % % % % % % % % % % % % % % % % % X .                                       ",
"                                      . X % % % % % % % % % % % % % % % % % % % % % % X .                                       ",
"                      o O . . . . . . + @ % % & * = = = = = = = = = = = = = = * & % % @ + . . . . . . O o                       ",
"                      O # X X X X X X @ $ % % * - ; ; ; ; ; ; ; ; ; ; ; ; ; ; - * % % $ @ X X X X X X # O                       ",
"                      . X % % % % % % % % % % = ; : : : : : : : : > , , > : : ; = % % % % % % % % % % X .                       ",
"                      . X % % % % % % % % % % = ; : : : : : : : : , < < , : : ; = % % % % % % % % % % X .                       ",
"              o O . . + @ % % & * = = = = = = < , : : > , , > : : ; = * - 1 2 3 4 5 5 5 5 5 5 6 7 % % @ + . . O o               ",
"              O # X X @ $ % % * - ; ; ; ; ; ; , > : : , < < , : : ; = & * 8 9 0 q w w w w w w e 6 % % $ @ X X # O               ",
"              . X % % % % % % = ; : : : : : : : : > , - * = ; > , r t y y u i p p a s d d s a d f % % % % % % X .               ",
"              . X % % % % % % = ; : : : : : : : : , < * & = ; , < t g h h j k p p s l f f l s d f % % % % % % X .               ",
"      o O . . + @ % % & * = = < , > , , > > , , > ; = z x c v ; = y h b n m M s a d f % % 5 w s l 5 5 6 7 % % @ + . . O o       ",
"      O # X X @ $ % % * - ; ; , > , < < , , < < , ; = x N B V ; = y h n C Z A l s d f % % 5 w a s w w e 6 % % $ @ X X # O       ",
"      . X % % % % % % = ; > , ; ; - * = ; ; = * - - * y h S D - * y h F G % % 5 w s l 6 7 5 w p p p p d f % % % % % % X .       ",
"      . X % % % % % % = ; , < = = * & = ; ; = & * * & y h H J * & y h F G % % 5 w a s e 6 5 w p p p p d f % % % % % % X .       ",
"      . X % % & * = = < , ; = % % & * < , v c x z % % y h F G % % y h F G % % A M K L s l l s a s s a s l 5 5 6 7 % % X .       ",
"      . X % % * - ; ; , > ; = % % * - , > V B N x % % y h F G % % y h F G % % Z m P K a s s a s l l s a s w w e 6 % % X .       ",
"      . X % % = ; > , , > , < = = < , > , D S F G z x C n F G % % x N I U y y C n Y T p p p p d f 6 e s a p p d f % % X .       ",
"      . X % % = ; , < < , > , ; ; , > , < J H F G x N n b F G % % z x U I h h n b Y T p p p p d f 7 6 l s p p d f % % X .       ",
". . . + @ % % = ; ; = * - , > : : : : ; = x N I U U I F F N x % % % % y h b n F F m M s a p p d f % % 6 e R E W Q % % @ + . . . ",
"X X X @ $ % % = ; ; = & * < , : : : : ; = z x U I I U G G x z % % % % y h n C G G Z A l s p p d f % % 7 6 ! ~ ^ / % % $ @ X X X ",
"% % % % % % % = ; ; = % % * - , > > , - * % % y h n C x z % % % % z x C n F G % % % % A M K L s l 6 7 % % ( ) _ ` % % % % % % % ",
"% % % % % % % = ; ; = % % & * < , , < * & % % y h b n N x % % % % x N n b F G % % % % Z m P K a s e 6 % % ( ) _ ` % % % % % % % ",
"% % % & * = = < , ; = % % & * < , ; = % % % % x N n b n C y y x z y h b n N x % % z x C n ' ] [ [ W Q { } |  . .| ( ( } { % % % ",
"% % % * - ; ; , > ; = % % * - , > ; = % % % % z x C n b n h h N x y h n C x z % % x N n b ..X.o.o.^ / } O. .+.+. .) ) O.} % % % ",
"% % % = ; : : : : , < * & = ; > , - * % % % % % % x N n b @.@.F G y h F G z x y y C n b n #.$.%.%. .| |  .+. . .+.%.%._ ` % % % ",
"% % % = ; : : : : > , - * = ; , < * & % % % % % % z x C n @.@.F G y h F G x N h h n b n C &.*.%.%.+. . .+. .| |  .%.%._ ` % % % ",
"% % % = ; : : : : : : ; = = ; ; = % % z x y y y y x z x N n b n C C n n C C n b n F F N x } O. .+.%.%.+. .O.} } O. .+._ ` % % % ",
"% % % = ; : : : : : : ; = = ; ; = % % x N h h h h N x z x C n b n n b b n n b n C G G x z { } |  .%.%. .| } { { } |  ._ ` % % % ",
"% % % = ; : : > , , > , < < , ; = z x C n b n n b n C y y C n @.@.@.@.b n F F N x % % % % % % ( ) +. .O.} % % % % ( ) _ ` % % % ",
"% % % = ; : : , < < , > , , > ; = x N n b n C C n b n h h n b @.@.@.@.n C G G x z % % % % % % ( )  .| } { % % % % ( ) _ ` % % % ",
"% % % = ; > , - * * - , > : : v c C n b n N x x N n b @.@.b n n b @.@.n C y y x z % % % % % % ( ) _ ` % % % % % % ( ) _ ` % % % ",
"% % % = ; , < * & & * < , : : V B n b n C x z z x C n @.@.n C C n @.@.b n h h N x % % % % % % ( ) _ ` % % % % % % ( ) _ ` % % % ",
"% % % = ; ; = % % % % * - , > V B F F N x % % % % x N n b F G y h @.@.b n n b n C y y y y y y &.*. .| } { % % { } |  ._ ` % % % ",
"% % % = ; ; = % % % % & * < , v c G G x z % % % % z x C n F G y h @.@.n C C n b n h h h h h h #.$.+. .O.} % % } O. .+._ ` % % % ",
"% % % = ; , < * & % % % % = ; ; = % % % % % % z x y y C n F G x N n b F G x N F F n b @.@.=.-.;.:.%.%. .| } { ( ) %.%._ ` % % % ",
"% % % = ; > , - * % % % % = ; ; = % % % % % % x N h h n b F G z x C n F G z x G G C n @.@.-.>.:.,.%.%.+. .O.} ( ) %.%._ ` % % % ",
"% % % = ; : : , < * & % % = ; 1 8 6 7 % % z x C n b n F F N x % % y h F G % % % % x N F F #.$.%.%.+. . .+. .| |  .%.%._ ` % % % ",
"% % % = ; : : > , - * % % = ; 2 9 e 6 % % x N n b n C G G x z % % y h F G % % % % z x G G &.*.%.%. .| |  .+. . .+.%.%._ ` % % % ",
"% % % * - ; ; , > ; = 7 6 <.3 1.2.d f % % x N n b n C x z % % z x C n n C y y x z % % { } |  .+. .O.} ( ) %.%.+. ._ _ O.} % % % ",
"% % % & * = = < , ; = 6 e q 0 2.3.d f % % z x C n b n N x % % x N n b b n h h N x % % } O. .+. .| } { ( ) %.%. .| ` ` } { % % % ",
"% % % % % % % = ; , < <.q a s s a s l 6 7 % % y h @.@.F G % % y h b n F F n b F G % % ( ) %.%._ ` % % } O. .+._ ` % % % % % % % ",
"% % % % % % % = ; > , 3 0 s l l s a s e 6 % % y h @.@.F G % % y h n C G G C n F G % % ( ) %.%._ ` % % { } |  ._ ` % % % % % % % ",
"X X X @ $ % % 4.5.6.6.7.8.e 6 6 e s a s l A Z C n b n N x z x C n F G % % y h n C 9.0.|  .%.%. .| } { { } |  ._ ` % % $ @ X X X ",
". . . + @ % % q.w.e.e.8.r.6 7 7 6 l s a s M m n b n C x z x N n b F G % % y h b n t.y. .+.%.%.+. .O.} } O. .+._ ` % % @ + . . . ",
"      . X % % 5 w p p d f % % 7 6 l s p p K P u.i.N x % % y h b n N x % % y h =.-.;.:.+. ._ _  .+. .| |  .%.%._ ` % % X .       ",
"      . X % % 5 w p p d f % % 6 e s a p p L K p.a.x z % % y h n C x z % % y h -.>.:.,. .| ` ` |  .+. . .+.%.%._ ` % % X .       ",
"      . X % % 6 e d d s.d.5 5 l s a s d d s a s l 5 5 6 7 y h F G % % { } &.#.;.:.+. .O.} % % } O. .+.+. ._ _ O.} % % X .       ",
"      . X % % 7 6 f f d.s.w w s a s l f f l s a s w w e 6 y h F G % % } O.*.$.:.,. .| } { % % { } |  . .| ` ` } { % % X .       ",
"      . X % % % % % % 5 w p p p p d f % % 6 e d d s a R ! &.#.#.&.( ( |  .%.%.+. .O.} % % { } ( ( |  ._ ` % % % % % % X .       ",
"      . X % % % % % % 5 w p p p p d f % % 7 6 f f l s E ~ *.$.$.*.) )  .+.%.%. .| } { % % } O.) )  .+._ ` % % % % % % X .       ",
"      O # X X @ $ % % 6 e d d s a s l 6 7 % % % % 6 e f.g.%.%.%.%.+. ._ _  .+._ ` % % % % ( ) +. ._ _ O.} % % $ @ X X # O       ",
"      o O . . + @ % % 7 6 f f l s a s e 6 % % % % 7 6 h.j.%.%.%.%. .| ` ` |  ._ ` % % % % ( )  .| ` ` } { % % @ + . . O o       ",
"              . X % % % % % % 5 w p p s l 5 5 k.l.} { ( ) %.%.+. .O.} % % ( )  .| ( ( ( ( |  ._ ` % % % % % % X .               ",
"              . X % % % % % % 5 w p p a s w w z.x.O.} ( ) %.%. .| } { % % ( ) +. .) ) ) )  .+._ ` % % % % % % X .               ",
"              O # X X @ $ % % 6 e d d d d d d f.g. .| |  .%.%._ ` % % { } |  .+. ._ _ _ _ _ _ O.} % % $ @ X X # O               ",
"              o O . . + @ % % 7 6 f f f f f f h.j.+. . .+.%.%._ ` % % } O. .+. .| ` ` ` ` ` ` } { % % @ + . . O o               ",
"                      . X % % % % % % % % % % ( ) %.%.%.%.%.%. .| ( ( |  .%.%._ ` % % % % % % % % % % X .                       ",
"                      . X % % % % % % % % % % ( ) %.%.%.%.%.%.+. .) )  .+.%.%._ ` % % % % % % % % % % X .                       ",
"                      O # X X X X X X @ $ % % } O._ _ _ _ _ _ _ _ _ _ _ _ _ _ O.} % % $ @ X X X X X X # O                       ",
"                      o O . . . . . . + @ % % { } ` ` ` ` ` ` ` ` ` ` ` ` ` ` } { % % @ + . . . . . . O o                       ",
"                                      . X % % % % % % % % % % % % % % % % % % % % % % X .                                       ",
"                                      . X % % % % % % % % % % % % % % % % % % % % % % X .                                       ",
"                                      . X % % % % % % % % % % % % % % % % % % % % % % X .                                       "
};
