/* XPM */
static char *_88410f03b6a4670b1732cbd81ff9c326AE6Dz8WzeSDrD7f[] = {
/* columns rows colors chars-per-pixel */
"64 64 142 2 ",
"   c black",
".  c #2E0000",
"X  c #2E0000",
"o  c #2E0000",
"O  c #2E0000",
"+  c #2E0000",
"@  c #2E0000",
"#  c #2E0000",
"$  c None",
"%  c #2E0000",
"&  c #340202",
"*  c #400505",
"=  c #460707",
"-  c #650F0F",
";  c #771414",
":  c #460606",
">  c #771313",
",  c #8F1A1A",
"<  c #891818",
"1  c #7D1515",
"2  c #580B0B",
"3  c #360202",
"4  c #460505",
"5  c #4E0707",
"6  c #4C0707",
"7  c #480707",
"8  c #750F0F",
"9  c #8D1414",
"0  c #881414",
"q  c #7C1414",
"w  c #4E0606",
"e  c #8D1313",
"r  c #AD1A1A",
"t  c #9F1818",
"y  c #841515",
"u  c #931515",
"i  c #600B0B",
"p  c #660B0B",
"a  c #951515",
"s  c #A51818",
"d  c #A61A1A",
"f  c #971A1A",
"g  c #841313",
"h  c #9D1313",
"j  c #A31515",
"k  c #961818",
"l  c #6D0606",
"z  c #BA0606",
"x  c #CC0B0B",
"c  c #B21818",
"v  c #BC1515",
"b  c #BB1313",
"n  c #B01313",
"m  c #610000",
"M  c #C80000",
"N  c #E80505",
"B  c #BF0F0F",
"V  c #D90B0B",
"C  c #E60606",
"Z  c #E30606",
"A  c #F50202",
"S  c #9C0F0F",
"D  c #BA0505",
"F  c #D50000",
"G  c #EF0000",
"H  c #880000",
"J  c #550000",
"K  c #3B0000",
"L  c #FC0000",
"P  c #C90000",
"I  c #620000",
"U  c #530505",
"Y  c #5D0202",
"T  c #A20000",
"R  c #C11313",
"E  c #4D0505",
"W  c #8B0F0F",
"Q  c #E80606",
"!  c #5B0202",
"~  c #B40505",
"^  c #370202",
"/  c #4A0606",
"(  c #530808",
")  c #6A0D0D",
"_  c #961616",
"`  c #811313",
"'  c #9D1919",
"]  c #A11919",
"[  c #A91A1A",
"{  c #C22121",
"}  c #B51E1E",
"|  c #9A1717",
" . c #9A1313",
".. c #B41313",
"X. c #A51A1A",
"o. c #6B0D0D",
"O. c #740606",
"+. c #C20606",
"@. c #B91F1F",
"#. c #A61B1B",
"$. c #7B0000",
"%. c #AF0000",
"&. c #6F0E0E",
"*. c #700606",
"=. c #AB0202",
"-. c #8E1313",
";. c #AA1919",
":. c #C41919",
">. c #B51313",
",. c #7D0606",
"<. c #7A0808",
"1. c #C70808",
"2. c #E40606",
"3. c #D20202",
"4. c #8F1818",
"5. c #7F1515",
"6. c #8E1515",
"7. c #5E0B0B",
"8. c #D00202",
"9. c #790505",
"0. c #480606",
"q. c #7C1313",
"w. c #E00505",
"e. c #A90F0F",
"r. c #4C0606",
"t. c #881313",
"y. c #B11B1B",
"u. c #AE1A1A",
"i. c #B91E1E",
"p. c #690D0D",
"a. c #991616",
"s. c #670C0C",
"d. c #5E0A0A",
"f. c #7D1010",
"g. c #B11C1C",
"h. c #BD1F1F",
"j. c #B21C1C",
"k. c #991717",
"l. c #911515",
"z. c #520808",
"x. c #4F0707",
"c. c white",
/* pixels */
"                                      . X % % % % % % % % % % % % % % % % % % % % % % X .                                       ",
"                                      . X % % % % % % % % % % % % % % % % % % % % % % X .                                       ",
"                                      . X % % % % % % % % % % % % % % % % % % % % % % X .                                       ",
"                      o O . . . . . . + @ % % & * = = = = = = = = = = = = = = * & % % @ + . . . . . . O o                       ",
"                      O # X X X X X X @ $ % % * - ; ; ; ; ; ; ; ; ; ; ; ; ; ; - * % % $ @ X X X X X X # O                       ",
"                      . X % % % % % % % % % % : > , , < 1 > > > > 1 < , , , , ; = % % % % % % % % % % X .                       ",
"                      . X % % % % % % % % % % : > , , 1 2 : : : : 2 1 , , , , ; = % % % % % % % % % % X .                       ",
"              o O . . + @ % % 3 4 5 5 6 7 = = 2 1 < 1 - * % % % % * - > > 1 < 1 2 = = = = = = * & % % @ + . . O o               ",
"              O # X X @ $ % % 4 8 9 9 0 q ; ; 1 < 1 2 * & % % % % & * : : 2 1 < 1 ; ; ; ; ; ; - * % % $ @ X X # O               ",
"              . X % % % % % % w e r r t y > > 1 < 1 2 * & % % % % % % & * 2 1 , , < 1 1 < , , ; = % % % % % % X .               ",
"              . X % % % % % % w e r r u i : : 2 1 < 1 - * % % % % % % * - 1 < , , 1 2 2 1 , , ; = % % % % % % X .               ",
"      o O . . + @ % % 3 4 5 5 p a s a 8 4 % % * - 1 < 1 2 * & % % & * 2 1 < 1 > > - * * - 1 < 1 2 = = * & % % @ + . . O o       ",
"      O # X X @ $ % % 4 8 9 9 a s a p 4 3 % % & * 2 1 < 1 - * % % * - 1 < 1 2 : : * & & * 2 1 < 1 ; ; - * % % $ @ X X # O       ",
"      . X % % % % % % w e r r s a 8 4 % % 3 4 6 7 2 1 , , 1 2 = = 2 1 , , 1 2 * & % % & * 2 1 < 1 1 < ; = % % % % % % X .       ",
"      . X % % % % % % w e r r a p 4 3 % % 4 8 0 q 1 < , , < 1 ; ; 1 < , , < 1 - * % % * - 1 < 1 2 2 1 ; = % % % % % % X .       ",
"      . X % % 3 4 5 5 p a r r a p 5 5 5 5 p a d f , , < 1 > > > > g h j k , , 1 2 = = 2 1 < 1 - * : > 1 2 = = * & % % X .       ",
"      . X % % 4 8 9 9 a s r r s a 9 9 9 9 a s d f , , 1 2 : : : : l z x j , , < 1 ; ; 1 < 1 2 * & : > < 1 ; ; - * % % X .       ",
"      . X % % w e s a e e e e a s r r r r c v b n h g - * % % % % m M N B h g 1 < , , , , ; = % % * - > > 1 < ; = % % X .       ",
"      . X % % w e a p w w w w p a r r r r v V C Z z l * & % % % % m M A N z l 2 1 , , , , ; = % % & * : : 2 1 ; = % % X .       ",
". . . + @ % % w e 9 5 % % 3 4 p a r r s a S D F G F H J K % % % % m M L L P I * - > > 1 < 1 2 * & % % % % : > ; = % % @ + . . . ",
"X X X @ $ % % w e 9 5 % % 4 8 a s r r a p U Y H F G F T J % % % % m M L L P I & * : : 2 1 < 1 - * % % % % : > ; = % % $ @ X X X ",
"% % % % % % % w e a p 5 5 p a c v R R S U % % J T F G P I % % % % m M G F T J % % % % E W j k 1 2 * & % % : > ; = % % % % % % % ",
"% % % % % % % w e s a 9 9 a s v V Q Q D Y % % K J H F P I % % % % m M F H J K % % % % ! ~ x j < 1 - * % % : > ; = % % % % % % % ",
"% % % ^ / ( ( ) _ r r s a e e S D F G P I % % % % m M F H J K K J H F P I % % K J I I H F N B j k 1 2 = = 2 1 1 2 = = * & % % % ",
"% % % / ` ' ' ] [ r r a p w w U Y H F P I % % % % m M G F T J J T F G P I % % J T P P F G A N x j < 1 ; ; 1 < < 1 ; ; - * % % % ",
"% % % ( ' { { } |  ...S U % % % % m M F H I I J K J T F G P I m M G F T J % % m M G F M M M M z h , , < 1 > > 1 < , , ; = % % % ",
"% % % ( ' { { X.o.O.+.D Y % % % % m M G F P P T J K J H F P I m M F H J K % % m M F H m m m m l g , , 1 2 : : 2 1 , , ; = % % % ",
"% % % ( ' @.#.` / m M F H I I I I $.%.M M F G F H I I H F F H H F F H I I I I H F P I % % % % * - 1 < ; = % % * - 1 < ; = % % % ",
"% % % ( ' #.&./ ^ m M G F P P P P %.$.m m H F G F P P F G G F F G G F P P P P F G P I % % % % & * 2 1 ; = % % & * 2 1 ; = % % % ",
"% % % ( ' #.&.( ( *.=.M M M M M M T J % % J T M M M M F G L L L L L L G F M M F G F H I I J K % % : > 1 2 * & % % : > ; = % % % ",
"% % % ( ' @.#.' ' -.*.m m m m m m J K % % K J m m m m H F L L L L L L F H m m H F G F P P T J % % : > < 1 - * % % : > ; = % % % ",
"% % % ( ' { { { { #.&.( ( / ^ % % % % % % % % K J I I H F L L G F M M T J % % J T M M F G F H I I l g , , 1 2 = = 2 1 ; = % % % ",
"% % % ( ' { { { { @.#.' ' ` / % % % % % % % % J T P P F G L L F H m m J K % % K J m m H F G F P P z h , , < 1 ; ; 1 < ; = % % % ",
"% % % ( ' { { @.#.' ' ;.:.>.,.I I I I J K % % m M L L G F F G F H I I I I J K % % % % J T M M M M z h , , , , , , , , ; = % % % ",
"% % % ( ' { { #.&.( ( <.1.2.3.P P P P T J % % m M L L F H H F G F P P P P T J % % % % K J m m m m l g , , , , , , , , ; = % % % ",
"% % % ( ' { { #.&./ ^ J T M M M M F G P I K J H F G F T J m M L L G F F G P I K J I I J K % % 3 4 i y 4.5.> > 1 < , , ; = % % % ",
"% % % ( ' { { @.#.` / K J m m m m H F P I J T F G F H J K m M L L F H H F P I J T P P T J % % 4 8 u t 6.7.: : 2 1 , , ; = % % % ",
"% % % ( ' { { { { #.&.( ( / ^ % % J T %.$.H F G F T J K J H F G F T J m M F H H F L L F H J K w e s a 8 4 & * 2 1 , , ; = % % % ",
"% % % ( ' { { { { @.#.' ' ` / % % K J $.%.F G F H J K J T F G F H J K m M G F F G L L G F T J w e a p 4 3 * - 1 < , , ; = % % % ",
"% % % / ` ' ' #.@.{ { @.#.` / K J I I $.%.M M T J % % m M G F T J % % J T F G G F M M F G 8.9.p a 9 5 % % 0.q.4.5.> > - * % % % ",
"% % % ^ / ( ( &.#.{ { #.&./ ^ J T P P %.$.m m J K % % m M F H J K % % K J H F F H m m H F w.e.a s 9 5 % % r.t.6.7.: : * & % % % ",
"% % % % % % % ( ' { { #.&.( ( <.1.2.3.T J % % % % % % m M F H J K % % % % J T T J % % Y D V v s a 8 4 % % w e 9 5 % % % % % % % ",
"% % % % % % % ( ' { { @.#.' ' ;.:.>.,.J K % % % % % % m M G F T J % % % % K J J K % % U S v c a p 4 3 % % w e 9 5 % % % % % % % ",
"X X X @ $ % % ( ' { { @.#.' ' #.@.#.&.( ( / ^ % % % % J T F G F H J K % % % % % % 3 4 p a r r 9 5 % % 3 4 p a 9 5 % % $ @ X X X ",
". . . + @ % % ( ' { { #.&.( ( &.#.@.#.' ' ` / % % % % K J H F G F T J % % % % % % 4 8 a s r r 9 5 % % 4 8 a s 9 5 % % @ + . . . ",
"      . X % % ( ' { { #.&./ ^ / ` #.@.{ { #.&.( ( / ^ % % J T F G P I % % 3 4 5 5 p a s a a s a p 5 5 p a r r 9 5 % % X .       ",
"      . X % % ( ' { { @.#.` / ^ / &.#.{ { @.#.' ' ` / % % K J H F P I % % 4 8 9 9 a s a p p a s a 9 9 a s r r 9 5 % % X .       ",
"      . X % % / ` ' ' #.@.' ( % % ( ' { { @.#.#.@.#.&.( ( ( ( <.1.1.<.( ( o.| y.u.s a 8 4 4 8 a s r r s a e e 8 4 % % X .       ",
"      . X % % ^ / ( ( &.#.' ( % % ( ' { { #.&.&.#.@.#.' ' ' ' ;.:.:.;.' ' X.} i.y.a p 4 3 3 4 p a r r a p w w 4 3 % % X .       ",
"      . X % % % % % % ( ' #.&.( ( &.#.@.#.` / / ` ' ' ' ' #.@.{ { @.#.' ' ' ' ] [ a p 4 3 % % w e r r 9 5 % % % % % % X .       ",
"      . X % % % % % % ( ' @.#.' ' #.@.#.&./ ^ ^ / ( ( ( ( &.#.{ { #.&.( ( ( ( p._ s a 8 4 % % w e r r 9 5 % % % % % % X .       ",
"      O # X X @ $ % % / ` ' ' #.@.@.#.` / % % % % ^ / ( ( &.#.@.#.` / % % % % 4 8 _ [ a.s.5 5 d.f.e e 8 4 % % $ @ X X # O       ",
"      o O . . + @ % % ^ / ( ( &.#.#.&./ ^ % % % % / ` ' ' #.@.#.&./ ^ % % % % 3 4 p.] g.a.9 9 f.d.w w 4 3 % % @ + . . O o       ",
"              . X % % % % % % ( ' #.&.( ( ( ( ( ( &.#.{ { @.#.` / % % % % ^ / ( ( &.#.h.j.r r 9 5 % % % % % % X .               ",
"              . X % % % % % % ( ' @.#.' ' ' ' ' ' #.@.{ { #.&./ ^ % % % % / ` ' ' #.@.h.j.r r 9 5 % % % % % % X .               ",
"              O # X X @ $ % % / ` ' ' ' ' ' ' #.@.{ { { { #.&./ ^ % % ^ / &.#.@.#.' ' k.l.e e 8 4 % % $ @ X X # O               ",
"              o O . . + @ % % ^ / ( ( ( ( ( ( &.#.{ { { { @.#.` / % % / ` #.@.#.&.( ( z.x.w w 4 3 % % @ + . . O o               ",
"                      . X % % % % % % % % % % ( ' { { { { { { #.&.( ( &.#.{ { ' ( % % % % % % % % % % X .                       ",
"                      . X % % % % % % % % % % ( ' { { { { { { @.#.' ' #.@.{ { ' ( % % % % % % % % % % X .                       ",
"                      O # X X X X X X @ $ % % / ` ' ' ' ' ' ' ' ' ' ' ' ' ' ' ` / % % $ @ X X X X X X # O                       ",
"                      o O . . . . . . + @ % % ^ / ( ( ( ( ( ( ( ( ( ( ( ( ( ( / ^ % % @ + . . . . . . O o                       ",
"                                      . X % % % % % % % % % % % % % % % % % % % % % % X .                                       ",
"                                      . X % % % % % % % % % % % % % % % % % % % % % % X .                                       ",
"                                      . X % % % % % % % % % % % % % % % % % % % % % % X .                                       "
};
